<svg width="95" height="44" viewBox="0 0 95 44" fill="none" xmlns="http://www.w3.org/2000/svg">
<g clip-path="url(#clip0_16_257)">
<path d="M10.7247 24.7615V21.4233H10.9032L15.8735 15.2344H19.0305L14.0508 21.3482H13.4964L10.7247 24.7615ZM8 28.7655V15.2344H10.8375V28.7655H8ZM15.9863 28.7655L11.6361 22.3516L13.6844 20.4949L19.3781 28.7655H15.9863Z" fill="white"/>
<path d="M23.0522 28.7655L19.4631 15.2344H22.4039L24.5461 24.9303H24.6025L27.1017 15.2344H29.5916L32.0908 24.9303H32.1472L34.2988 15.2344H37.2396L33.6411 28.7655H30.8694L28.3795 19.6979H28.3232L25.8239 28.7655H23.0522Z" fill="white"/>
<path d="M38.3862 28.7655V15.2344H43.5632C44.9225 15.2344 46.0812 15.4938 47.0396 16.0127C48.004 16.5315 48.7432 17.2911 49.2568 18.2913C49.7704 19.2853 50.0272 20.4981 50.0272 21.9296V21.9484C50.0272 23.38 49.7704 24.6052 49.2568 25.6242C48.7496 26.6432 48.0136 27.4215 47.049 27.9591C46.0844 28.4967 44.9225 28.7655 43.5632 28.7655H38.3862ZM41.2237 26.4212H43.225C44.0706 26.4212 44.7846 26.2525 45.3672 25.9149C45.9497 25.5773 46.3882 25.0772 46.6826 24.4146C46.9832 23.7519 47.1336 22.933 47.1336 21.9578V21.939C47.1336 20.995 46.9801 20.198 46.6732 19.5478C46.3725 18.8977 45.9309 18.407 45.3484 18.0756C44.7659 17.7381 44.0581 17.5693 43.225 17.5693H41.2237V26.4212Z" fill="white"/>
<path d="M57.5068 29C56.1852 29 55.0388 28.7187 54.068 28.1561C53.1032 27.5934 52.358 26.7901 51.8316 25.7462C51.312 24.6959 51.052 23.4456 51.052 21.9953V21.9859C51.052 20.5294 51.3148 19.2822 51.8412 18.2445C52.3672 17.2005 53.1128 16.4003 54.0772 15.8439C55.042 15.2813 56.1852 15 57.5068 15C58.6028 15 59.58 15.2125 60.438 15.6376C61.2964 16.0627 61.9852 16.6472 62.5052 17.3912C63.0252 18.1288 63.3288 18.979 63.4164 19.9417L63.426 20.0261H60.6636L60.626 19.8667C60.5196 19.3666 60.3284 18.9321 60.0528 18.5633C59.7772 18.1945 59.4232 17.91 58.9912 17.71C58.5652 17.5037 58.0704 17.4005 57.5068 17.4005C56.78 17.4005 56.1504 17.585 55.618 17.9538C55.0856 18.3226 54.6724 18.8509 54.378 19.5385C54.0896 20.2199 53.9456 21.0326 53.9456 21.9766V21.9859C53.9456 22.9362 54.0896 23.7582 54.378 24.4521C54.6724 25.1398 55.0856 25.6711 55.618 26.0462C56.1568 26.415 56.7864 26.5995 57.5068 26.5995C58.0516 26.5995 58.5372 26.4994 58.9628 26.2994C59.3952 26.0994 59.7552 25.8118 60.0436 25.4367C60.3316 25.0554 60.5352 24.5959 60.654 24.0583L60.6728 23.9645H63.4352L63.426 24.0676C63.3384 25.0241 63.0312 25.8743 62.5052 26.6182C61.9852 27.3621 61.2964 27.9466 60.438 28.3717C59.58 28.7906 58.6028 29 57.5068 29Z" fill="white"/>
<path d="M64.6385 28.7656V26.8245L69.4301 22.3516C70.0189 21.8078 70.4637 21.3546 70.7645 20.992C71.0649 20.6294 71.2685 20.3043 71.3749 20.0168C71.4877 19.7292 71.5441 19.4291 71.5441 19.1166V19.0978C71.5441 18.729 71.4565 18.4039 71.2813 18.1226C71.1057 17.835 70.8613 17.61 70.5481 17.4474C70.2413 17.2849 69.8873 17.2036 69.4865 17.2036C69.0229 17.2036 68.6161 17.2974 68.2653 17.4849C67.9145 17.6662 67.6389 17.9194 67.4385 18.2445C67.2377 18.5633 67.1313 18.9259 67.1189 19.3322L67.1093 19.4166H64.4785V19.3416C64.4785 18.4914 64.6949 17.7412 65.1269 17.0911C65.5593 16.4347 66.1513 15.9221 66.9029 15.5532C67.6605 15.1844 68.5157 15 69.4677 15C70.4261 15 71.2685 15.1688 71.9953 15.5064C72.7217 15.8377 73.2885 16.3003 73.6957 16.8942C74.1029 17.4881 74.3065 18.1695 74.3065 18.9384V18.9571C74.3065 19.501 74.2061 20.0074 74.0057 20.4762C73.8117 20.9388 73.4889 21.4327 73.0381 21.9578C72.5873 22.4767 71.9701 23.0956 71.1873 23.8145L67.2597 27.3871L68.3497 25.4836V27.3871L67.2693 26.5151H74.4945V28.7656H64.6385Z" fill="white"/>
<path d="M81.9264 28.7367V26.2525H75.2532V23.8902C75.6124 23.3153 75.972 22.7372 76.3312 22.156C76.6908 21.5748 77.05 20.9967 77.4096 20.4217C77.7688 19.8405 78.1252 19.2625 78.4784 18.6875C78.8376 18.1063 79.1972 17.5251 79.5564 16.9439C79.916 16.3627 80.2752 15.7847 80.6348 15.2097H84.594V23.9933H86.36V26.2525H84.594V28.7367H81.9264ZM77.6976 24.0683H81.9824V17.2533H81.9172C81.6324 17.7032 81.3504 18.1532 81.0716 18.6032C80.7928 19.0531 80.5108 19.5031 80.2256 19.9531C79.9468 20.3967 79.6648 20.8467 79.38 21.3029C79.1012 21.7529 78.8192 22.2029 78.534 22.6528C78.2552 23.0965 77.9764 23.5433 77.6976 23.9933V24.0683Z" fill="white"/>
</g>
<defs>
<clipPath id="clip0_16_257">
<rect width="78.36" height="14" fill="white" transform="translate(8 15)"/>
</clipPath>
</defs>
</svg>
