<svg width="80" height="14" viewBox="0 0 80 14" fill="none" xmlns="http://www.w3.org/2000/svg">
<g id="KWDC24-logo-Green">
<g id="KWDC23">
<path d="M2.74809 9.76155V6.42331H2.92814L7.94105 0.234427H11.125L6.10267 6.34829H5.54357L2.74809 9.76155ZM0 13.7656V0.234427H2.86181V13.7656H0ZM8.05476 13.7656L3.66729 7.35164L5.73309 5.49498L11.4757 13.7656H8.05476Z" fill="#223B3A"/>
<path d="M15.1812 13.7656L11.5613 0.234427H14.5274L16.6879 9.93034H16.7448L19.2655 0.234427H21.7767L24.2973 9.93034H24.3542L26.5242 0.234427H29.4903L25.8609 13.7656H23.0654L20.5542 4.69792H20.4974L17.9767 13.7656H15.1812Z" fill="#223B3A"/>
<path d="M30.6468 13.7656V0.234427H35.8681C37.239 0.234427 38.4078 0.49386 39.3743 1.01273C40.3472 1.53159 41.0927 2.29114 41.6107 3.29136C42.1287 4.28533 42.3878 5.4981 42.3878 6.92967V6.94843C42.3878 8.38 42.1287 9.60527 41.6107 10.6242C41.099 11.6432 40.3567 12.4215 39.3838 12.9591C38.4109 13.4968 37.239 13.7656 35.8681 13.7656H30.6468ZM33.5086 11.4213H35.527C36.3798 11.4213 37.1 11.2525 37.6876 10.9149C38.2751 10.5774 38.7173 10.0772 39.0142 9.4146C39.3175 8.75195 39.4691 7.93302 39.4691 6.9578V6.93905C39.4691 5.99509 39.3143 5.19804 39.0048 4.54789C38.7015 3.89775 38.2561 3.40701 37.6686 3.07569C37.0811 2.73811 36.3672 2.56932 35.527 2.56932H33.5086V11.4213Z" fill="#223B3A"/>
<path d="M49.9312 14C48.5982 14 47.4421 13.7187 46.4629 13.1561C45.49 12.5934 44.7382 11.7901 44.2076 10.7461C43.6832 9.69591 43.421 8.44563 43.421 6.99531V6.98593C43.421 5.52936 43.6864 4.28221 44.217 3.24447C44.7477 2.20049 45.4995 1.40031 46.4724 0.843938C47.4453 0.281313 48.5982 0 49.9312 0C51.0367 0 52.0223 0.212547 52.8877 0.637642C53.7532 1.06274 54.4482 1.64724 54.9725 2.39116C55.4969 3.12882 55.8033 3.97901 55.8917 4.94173L55.9012 5.02612H53.1152L53.0773 4.86671C52.9699 4.3666 52.7772 3.93213 52.4992 3.5633C52.2213 3.19446 51.8643 2.91002 51.4284 2.70998C50.9988 2.50368 50.4997 2.40054 49.9312 2.40054C49.1983 2.40054 48.5634 2.58495 48.0265 2.95378C47.4895 3.32262 47.0725 3.85086 46.7756 4.53851C46.485 5.21992 46.3397 6.0326 46.3397 6.97656V6.98593C46.3397 7.93615 46.485 8.75821 46.7756 9.45211C47.0725 10.1398 47.4895 10.6711 48.0265 11.0462C48.5698 11.415 49.2047 11.5995 49.9312 11.5995C50.4808 11.5995 50.9704 11.4994 51.4 11.2994C51.8359 11.0994 52.1991 10.8118 52.4897 10.4367C52.7803 10.0554 52.9857 9.59589 53.1057 9.05827L53.1247 8.9645H55.9107L55.9012 9.06765C55.8127 10.0241 55.5032 10.8743 54.9725 11.6182C54.4482 12.3621 53.7532 12.9466 52.8877 13.3717C52.0223 13.7906 51.0367 14 49.9312 14Z" fill="#223B3A"/>
<path d="M57.124 13.7656V11.8245L61.9568 7.35164C62.5507 6.80777 62.9992 6.35454 63.3025 5.99196C63.6057 5.62938 63.811 5.30431 63.9184 5.01675C64.0321 4.72918 64.089 4.42911 64.089 4.11654V4.09779C64.089 3.72896 64.0005 3.40388 63.8237 3.12257C63.6468 2.83501 63.4004 2.60996 63.0845 2.44742C62.775 2.28489 62.418 2.20362 62.0137 2.20362C61.5462 2.20362 61.1356 2.29739 60.7818 2.48493C60.428 2.66622 60.15 2.9194 59.9479 3.24447C59.7457 3.5633 59.6383 3.92588 59.6257 4.33222L59.6162 4.41661H56.9629V4.34159C56.9629 3.4914 57.1808 2.74124 57.6167 2.09109C58.0527 1.4347 58.6497 0.922081 59.4077 0.553249C60.1722 0.184416 61.0345 0 61.9947 0C62.9613 0 63.811 0.168788 64.5438 0.506363C65.2767 0.837687 65.8484 1.30029 66.259 1.89417C66.6697 2.48806 66.875 3.16946 66.875 3.93838V3.95713C66.875 4.501 66.7739 5.00737 66.5717 5.47622C66.3759 5.93883 66.0506 6.43269 65.5957 6.9578C65.1408 7.47667 64.5186 8.09556 63.7289 8.81447L59.7678 12.3871L60.8671 10.4836V12.3871L59.7773 11.5151H67.0645V13.7656H57.124Z" fill="#223B3A"/>
</g>
<path id="4" d="M74.5607 13.5269V11.0428H67.8301V8.68048C68.1925 8.10553 68.555 7.52746 68.9175 6.94626C69.2799 6.36506 69.6424 5.78699 70.0049 5.21204C70.3674 4.63084 70.7267 4.05277 71.0829 3.47782C71.4454 2.89662 71.8079 2.31542 72.1703 1.73422C72.5328 1.15302 72.8953 0.574949 73.2577 0H77.2511V8.7836H79.0322V11.0428H77.2511V13.5269H74.5607ZM70.2955 8.85859H74.617V2.04357H74.5514C74.2639 2.49353 73.9795 2.94349 73.6983 3.39345C73.4171 3.84341 73.1327 4.29337 72.8453 4.74333C72.564 5.18704 72.2797 5.637 71.9922 6.09321C71.711 6.54317 71.4266 6.99313 71.1392 7.44309C70.8579 7.8868 70.5767 8.33364 70.2955 8.7836V8.85859Z" fill="#223B3A"/>
</g>
</svg>
