<svg width="32" height="41" viewBox="0 0 32 41" fill="none" xmlns="http://www.w3.org/2000/svg">
<path d="M11.2273 19.4472C10.0389 19.4472 9.03075 19.0265 8.20289 18.1853C7.38837 17.3441 6.98112 16.1624 6.98112 14.6402C6.98112 13.8257 7.11465 13.0579 7.3817 12.3369C7.6621 11.6158 8.06936 10.9682 8.60347 10.3941C9.13757 9.80655 9.75847 9.33921 10.4662 8.99204C11.1738 8.64487 11.8415 8.47128 12.4691 8.47128C12.9765 8.47128 13.2302 8.68493 13.2302 9.11221C13.2302 9.32585 13.1634 9.48609 13.0299 9.59291C12.9097 9.69973 12.6827 9.7932 12.3489 9.87331C11.9216 9.95343 11.521 10.087 11.1471 10.2739C10.7733 10.4475 10.4328 10.6745 10.1257 10.9549C9.7785 11.2486 9.49142 11.5691 9.26442 11.9163C9.03743 12.2634 8.88387 12.6106 8.80375 12.9578H9.1843C9.47806 12.5839 9.83858 12.3102 10.2659 12.1366C10.7065 11.963 11.1805 11.8762 11.6879 11.8762C12.7027 11.8762 13.5306 12.2167 14.1715 12.8977C14.8124 13.5653 15.1329 14.4599 15.1329 15.5816C15.1329 16.7165 14.7657 17.6445 14.0313 18.3656C13.2969 19.0866 12.3622 19.4472 11.2273 19.4472ZM20.8612 19.4271C19.6995 19.4271 18.7047 19.0132 17.8769 18.1853C17.049 17.3441 16.6351 16.1557 16.6351 14.6202C16.6351 13.819 16.7686 13.0579 17.0357 12.3369C17.3161 11.6025 17.7233 10.9482 18.2574 10.374C18.7782 9.81323 19.3991 9.35924 20.1201 9.01207C20.8412 8.65155 21.5088 8.47128 22.123 8.47128C22.6304 8.47128 22.8841 8.68493 22.8841 9.11221C22.8841 9.3125 22.8173 9.47273 22.6838 9.59291C22.5636 9.69973 22.3433 9.78652 22.0229 9.85328C21.5822 9.94675 21.1683 10.087 20.7811 10.2739C20.3938 10.4475 20.04 10.6745 19.7195 10.9549C19.3991 11.262 19.1253 11.5824 18.8983 11.9163C18.6847 12.2501 18.5445 12.5906 18.4777 12.9377H18.8182C19.1387 12.5639 19.5059 12.2901 19.9198 12.1166C20.3471 11.943 20.8211 11.8562 21.3419 11.8562C22.3567 11.8562 23.1779 12.1967 23.8054 12.8777C24.4464 13.5453 24.7668 14.4399 24.7668 15.5615C24.7668 16.6965 24.3996 17.6245 23.6652 18.3456C22.9442 19.0666 22.0095 19.4271 20.8612 19.4271ZM8.52335 26.4773C8.20289 26.4773 7.94251 26.3705 7.74222 26.1569C7.54193 25.9299 7.44179 25.6628 7.44179 25.3557C7.44179 25.0619 7.54193 24.8149 7.74222 24.6146C7.94251 24.4143 8.20289 24.3142 8.52335 24.3142H23.2446C23.5651 24.3142 23.8255 24.4143 24.0258 24.6146C24.2394 24.8149 24.3462 25.0619 24.3462 25.3557C24.3462 25.6628 24.2394 25.9299 24.0258 26.1569C23.8255 26.3705 23.5651 26.4773 23.2446 26.4773H8.52335ZM8.52335 32.1856C8.20289 32.1856 7.94251 32.0854 7.74222 31.8851C7.54193 31.6848 7.44179 31.4378 7.44179 31.1441C7.44179 30.837 7.54193 30.5833 7.74222 30.383C7.94251 30.1693 8.20289 30.0625 8.52335 30.0625H15.5335C15.8406 30.0625 16.101 30.1693 16.3146 30.383C16.5283 30.5833 16.6351 30.837 16.6351 31.1441C16.6351 31.4378 16.5283 31.6848 16.3146 31.8851C16.101 32.0854 15.8406 32.1856 15.5335 32.1856H8.52335ZM0.0511 35.0097V6.08784C0.0511 4.16506 0.531795 2.72297 1.49318 1.76158C2.45457 0.786841 3.88331 0.29947 5.77938 0.29947H25.9485C27.858 0.29947 29.2867 0.786841 30.2347 1.76158C31.1961 2.72297 31.6768 4.16506 31.6768 6.08784V35.0097C31.6768 36.9324 31.1961 38.3745 30.2347 39.3359C29.2867 40.3107 27.858 40.798 25.9485 40.798H5.77938C3.88331 40.798 2.45457 40.3107 1.49318 39.3359C0.531795 38.3745 0.0511 36.9324 0.0511 35.0097ZM2.83513 34.9496C2.83513 35.951 3.0955 36.7121 3.61625 37.2329C4.13701 37.767 4.90478 38.034 5.91958 38.034H25.8083C26.8365 38.034 27.6109 37.767 28.1317 37.2329C28.6525 36.7121 28.9128 35.951 28.9128 34.9496V6.14793C28.9128 5.15983 28.6525 4.40541 28.1317 3.88465C27.6109 3.35055 26.8365 3.0835 25.8083 3.0835H5.91958C4.90478 3.0835 4.13701 3.35055 3.61625 3.88465C3.0955 4.40541 2.83513 5.15983 2.83513 6.14793V34.9496Z" fill="#223B3A"/>
</svg>
