<svg width="13" height="8" viewBox="0 0 13 8" fill="none" xmlns="http://www.w3.org/2000/svg">
<path d="M6.5 7.33105C6.30859 7.33105 6.13542 7.25586 5.98047 7.10547L1.01758 2.02637C0.958333 1.96257 0.910482 1.89193 0.874023 1.81445C0.837565 1.73242 0.819336 1.64355 0.819336 1.54785C0.819336 1.42025 0.848958 1.30632 0.908203 1.20605C0.967448 1.10124 1.0472 1.01921 1.14746 0.959961C1.25228 0.900716 1.36849 0.871094 1.49609 0.871094C1.68294 0.871094 1.84473 0.937174 1.98145 1.06934L6.82812 6.03223H6.16504L11.0049 1.06934C11.1507 0.937174 11.3148 0.871094 11.4971 0.871094C11.6247 0.871094 11.7386 0.900716 11.8389 0.959961C11.9437 1.01921 12.0257 1.10124 12.085 1.20605C12.1442 1.30632 12.1738 1.42025 12.1738 1.54785C12.1738 1.73014 12.1077 1.88965 11.9756 2.02637L7.00586 7.09863C6.9375 7.17611 6.86003 7.23535 6.77344 7.27637C6.68685 7.31283 6.5957 7.33105 6.5 7.33105Z" fill="#E8EEF0"/>
</svg>
