<svg width="22" height="22" viewBox="0 0 22 22" fill="none" xmlns="http://www.w3.org/2000/svg">
<circle cx="11" cy="11" r="10.5" stroke="#249947"/>
<path fill-rule="evenodd" clip-rule="evenodd" d="M11 6C10.4477 6 10 6.44772 10 7V12.9451L8.78361 11.8902C8.37559 11.5363 7.71405 11.5363 7.30602 11.8902C6.89799 12.244 6.89799 12.8178 7.30602 13.1717L10.2534 15.7279L10.2614 15.735C10.6694 16.0888 11.331 16.0888 11.739 15.735L14.6942 13.1719C15.1022 12.8181 15.1022 12.2443 14.6942 11.8904C14.2862 11.5366 13.6246 11.5365 13.2166 11.8904L12 12.9456V7C12 6.44772 11.5523 6 11 6Z" fill="#249947"/>
</svg>
