<svg width="24" height="32" viewBox="0 0 24 32" fill="none" xmlns="http://www.w3.org/2000/svg">
<path d="M11.9999 31.4312C11.6024 31.4312 11.2694 31.2969 11.0009 31.0283C10.743 30.7705 10.4208 30.373 10.0341 29.8359L0.91394 17.6382C0.709839 17.3696 0.554077 17.1011 0.446655 16.8325C0.349976 16.564 0.301636 16.2847 0.301636 15.9946C0.301636 15.7046 0.349976 15.4307 0.446655 15.1729C0.554077 14.9043 0.709839 14.6357 0.91394 14.3672L10.0341 2.16943C10.4208 1.63232 10.743 1.22949 11.0009 0.960938C11.2694 0.692383 11.6024 0.558105 11.9999 0.558105C12.3973 0.558105 12.725 0.692383 12.9828 0.960938C13.2406 1.22949 13.5682 1.63232 13.9657 2.16943L23.0858 14.3672C23.2792 14.6357 23.4296 14.9043 23.537 15.1729C23.6444 15.4307 23.6981 15.7046 23.6981 15.9946C23.6981 16.2847 23.6444 16.564 23.537 16.8325C23.4296 17.1011 23.2792 17.3696 23.0858 17.6382L13.9657 29.8359C13.5682 30.373 13.2406 30.7705 12.9828 31.0283C12.725 31.2969 12.3973 31.4312 11.9999 31.4312Z" fill="#223B3A"/>
</svg>
