<svg width="69" height="68" viewBox="0 0 69 68" fill="none" xmlns="http://www.w3.org/2000/svg">
<path d="M34.6 66.0508C32.35 66.0508 30.2171 65.2539 28.2015 63.6602C26.1859 62.0898 24.4046 59.875 22.8578 57.0156C21.3343 54.1328 20.139 50.7461 19.2718 46.8555C18.4046 42.9648 17.9711 38.6992 17.9711 34.0586C17.9711 29.4414 18.4046 25.1758 19.2718 21.2617C20.139 17.3477 21.3343 13.9492 22.8578 11.0664C24.4046 8.18359 26.1742 5.95703 28.1664 4.38672C30.182 2.81641 32.3265 2.03125 34.6 2.03125C36.8734 2.03125 39.0062 2.81641 40.9984 4.38672C43.014 5.95703 44.7953 8.18359 46.3421 11.0664C47.889 13.9492 49.0961 17.3477 49.9632 21.2617C50.8304 25.1758 51.264 29.4414 51.264 34.0586C51.264 38.6992 50.8187 42.9648 49.9281 46.8555C49.0609 50.7461 47.8539 54.1328 46.307 57.0156C44.7836 59.875 43.014 62.0898 40.9984 63.6602C39.0062 65.2539 36.8734 66.0508 34.6 66.0508ZM34.6 5.6875C32.9593 5.6875 31.3773 6.4375 29.8539 7.9375C28.3304 9.4375 26.9828 11.5 25.8109 14.125C24.6625 16.75 23.7484 19.7734 23.0687 23.1953C22.389 26.6172 22.0492 30.2383 22.0492 34.0586C22.0492 37.832 22.389 41.418 23.0687 44.8164C23.7484 48.2148 24.6625 51.2383 25.8109 53.8867C26.9828 56.5117 28.3304 58.5742 29.8539 60.0742C31.3773 61.5977 32.9593 62.3594 34.6 62.3594C36.264 62.3594 37.8461 61.5977 39.3461 60.0742C40.8695 58.5742 42.2054 56.5117 43.3539 53.8867C44.5257 51.2383 45.4515 48.2148 46.1312 44.8164C46.8109 41.418 47.1507 37.832 47.1507 34.0586C47.1507 30.2383 46.8109 26.6172 46.1312 23.1953C45.4515 19.7734 44.5257 16.75 43.3539 14.125C42.2054 11.5 40.8695 9.4375 39.3461 7.9375C37.8461 6.4375 36.264 5.6875 34.6 5.6875ZM32.5961 2.48828H36.6039V65.418H32.5961V2.48828ZM34.6 46.7852C37.9984 46.7852 41.2093 47.0664 44.2328 47.6289C47.2796 48.1914 50.0101 48.9883 52.4242 50.0195C54.8617 51.0273 56.8539 52.2344 58.4007 53.6406L55.3421 56.1719C53.1156 54.4609 50.2445 53.1367 46.7289 52.1992C43.2132 51.2617 39.1703 50.793 34.6 50.793C30.0531 50.793 26.0101 51.2617 22.4711 52.1992C18.9554 53.1367 16.0843 54.4609 13.8578 56.1719L10.7992 53.6406C12.3695 52.2344 14.3617 51.0273 16.7757 50.0195C19.1898 48.9883 21.9203 48.1914 24.9671 47.6289C28.014 47.0664 31.225 46.7852 34.6 46.7852ZM65.3617 32.0195V35.9922H3.83824V32.0195H65.3617ZM34.6 21.3672C31.225 21.3672 28.014 21.0859 24.9671 20.5234C21.9203 19.9609 19.1898 19.1641 16.7757 18.1328C14.3617 17.1016 12.3695 15.8945 10.7992 14.5117L13.8578 11.9805C16.0843 13.7148 18.9554 15.0508 22.4711 15.9883C26.0101 16.9023 30.0531 17.3594 34.6 17.3594C39.1703 17.3594 43.2132 16.9023 46.7289 15.9883C50.2445 15.0508 53.1156 13.7148 55.3421 11.9805L58.4007 14.5117C56.8539 15.8945 54.8617 17.1016 52.4242 18.1328C50.0101 19.1641 47.2796 19.9609 44.2328 20.5234C41.2093 21.0859 37.9984 21.3672 34.6 21.3672ZM34.6 67.668C29.9828 67.668 25.6468 66.7891 21.5921 65.0312C17.5375 63.2734 13.9632 60.8477 10.8695 57.7539C7.77574 54.6602 5.33824 51.0859 3.55699 47.0312C1.79918 42.9531 0.920273 38.6055 0.920273 33.9883C0.920273 29.3945 1.79918 25.0703 3.55699 21.0156C5.3148 16.9375 7.74059 13.3516 10.8343 10.2578C13.9515 7.14062 17.5375 4.70312 21.5921 2.94531C25.6468 1.1875 29.9711 0.308594 34.5648 0.308594C39.182 0.308594 43.5179 1.1875 47.5726 2.94531C51.6273 4.70312 55.2015 7.14062 58.2953 10.2578C61.4125 13.3516 63.85 16.9375 65.6078 21.0156C67.389 25.0703 68.2796 29.3945 68.2796 33.9883C68.2796 38.6055 67.4007 42.9531 65.6429 47.0312C63.8851 51.0859 61.4476 54.6602 58.3304 57.7539C55.2367 60.8477 51.6625 63.2734 47.6078 65.0312C43.5531 66.7891 39.2171 67.668 34.6 67.668ZM34.6 63.5195C38.6312 63.5195 42.4281 62.7461 45.9906 61.1992C49.5531 59.6758 52.6937 57.5547 55.4125 54.8359C58.1312 52.1172 60.264 48.9766 61.8109 45.4141C63.3578 41.8281 64.1312 38.0195 64.1312 33.9883C64.1312 29.957 63.3578 26.1602 61.8109 22.5977C60.264 19.0352 58.1312 15.8945 55.4125 13.1758C52.6937 10.457 49.5531 8.32422 45.9906 6.77734C42.4281 5.23047 38.6195 4.45703 34.5648 4.45703C30.5336 4.45703 26.7367 5.23047 23.1742 6.77734C19.6117 8.32422 16.4711 10.457 13.7523 13.1758C11.0336 15.8945 8.90074 19.0352 7.35387 22.5977C5.83043 26.1602 5.06871 29.957 5.06871 33.9883C5.06871 38.0195 5.83043 41.8281 7.35387 45.4141C8.90074 48.9766 11.0336 52.1172 13.7523 54.8359C16.4711 57.5547 19.6117 59.6758 23.1742 61.1992C26.7601 62.7461 30.5687 63.5195 34.6 63.5195Z" fill="#223B3A"/>
</svg>
