<svg width="39" height="40" viewBox="0 0 39 40" fill="none" xmlns="http://www.w3.org/2000/svg">
<path d="M19.5149 38.1813C18.233 38.1813 17.018 37.7273 15.8696 36.8193C14.7213 35.9247 13.7065 34.6629 12.8252 33.0339C11.9573 31.3915 11.2763 29.462 10.7823 27.2455C10.2882 25.0289 10.0412 22.5988 10.0412 19.9549C10.0412 17.3245 10.2882 14.8943 10.7823 12.6644C11.2763 10.4345 11.9573 8.49838 12.8252 6.85601C13.7065 5.21363 14.7146 3.94513 15.8496 3.0505C16.9979 2.15588 18.2197 1.70856 19.5149 1.70856C20.8101 1.70856 22.0252 2.15588 23.1602 3.0505C24.3085 3.94513 25.3233 5.21363 26.2046 6.85601C27.0858 8.49838 27.7735 10.4345 28.2676 12.6644C28.7616 14.8943 29.0086 17.3245 29.0086 19.9549C29.0086 22.5988 28.7549 25.0289 28.2475 27.2455C27.7535 29.462 27.0658 31.3915 26.1845 33.0339C25.3166 34.6629 24.3085 35.9247 23.1602 36.8193C22.0252 37.7273 20.8101 38.1813 19.5149 38.1813ZM19.5149 3.79158C18.5802 3.79158 17.6789 4.21886 16.811 5.07343C15.9431 5.928 15.1753 7.10303 14.5077 8.59853C13.8534 10.094 13.3326 11.8165 12.9454 13.766C12.5582 15.7155 12.3646 17.7785 12.3646 19.9549C12.3646 22.1047 12.5582 24.1477 12.9454 26.0838C13.3326 28.0199 13.8534 29.7424 14.5077 31.2513C15.1753 32.7468 15.9431 33.9218 16.811 34.7764C17.6789 35.6443 18.5802 36.0783 19.5149 36.0783C20.4629 36.0783 21.3642 35.6443 22.2188 34.7764C23.0867 33.9218 23.8478 32.7468 24.5021 31.2513C25.1697 29.7424 25.6972 28.0199 26.0844 26.0838C26.4716 24.1477 26.6652 22.1047 26.6652 19.9549C26.6652 17.7785 26.4716 15.7155 26.0844 13.766C25.6972 11.8165 25.1697 10.094 24.5021 8.59853C23.8478 7.10303 23.0867 5.928 22.2188 5.07343C21.3642 4.21886 20.4629 3.79158 19.5149 3.79158ZM18.3732 1.96894H20.6565V37.8208H18.3732V1.96894ZM19.5149 27.2054C21.451 27.2054 23.2803 27.3657 25.0028 27.6861C26.7387 28.0066 28.2943 28.4606 29.6696 29.0481C31.0583 29.6223 32.1932 30.3099 33.0745 31.1111L31.332 32.5532C30.0635 31.5784 28.4278 30.824 26.4249 30.2899C24.422 29.7558 22.1187 29.4887 19.5149 29.4887C16.9245 29.4887 14.6212 29.7558 12.6049 30.2899C10.602 30.824 8.96631 31.5784 7.69781 32.5532L5.95529 31.1111C6.84992 30.3099 7.98489 29.6223 9.36021 29.0481C10.7355 28.4606 12.2911 28.0066 14.027 27.6861C15.7628 27.3657 17.5921 27.2054 19.5149 27.2054ZM37.0402 18.7933V21.0565H1.98956V18.7933H37.0402ZM19.5149 12.7245C17.5921 12.7245 15.7628 12.5643 14.027 12.2438C12.2911 11.9233 10.7355 11.4693 9.36021 10.8818C7.98489 10.2943 6.84992 9.60665 5.95529 8.81884L7.69781 7.37676C8.96631 8.36485 10.602 9.12596 12.6049 9.66006C14.6212 10.1808 16.9245 10.4412 19.5149 10.4412C22.1187 10.4412 24.422 10.1808 26.4249 9.66006C28.4278 9.12596 30.0635 8.36485 31.332 7.37676L33.0745 8.81884C32.1932 9.60665 31.0583 10.2943 29.6696 10.8818C28.2943 11.4693 26.7387 11.9233 25.0028 12.2438C23.2803 12.5643 21.451 12.7245 19.5149 12.7245ZM19.5149 39.1026C16.8844 39.1026 14.4142 38.6019 12.1042 37.6005C9.79418 36.599 7.7579 35.217 5.99535 33.4545C4.2328 31.6919 2.84413 29.6556 1.82933 27.3456C0.827879 25.0223 0.327155 22.5454 0.327155 19.9149C0.327155 17.2978 0.827879 14.8342 1.82933 12.5242C2.83077 10.2008 4.21277 8.15789 5.97532 6.39534C7.75122 4.61944 9.79418 3.23077 12.1042 2.22932C14.4142 1.22787 16.8778 0.727145 19.4949 0.727145C22.1253 0.727145 24.5956 1.22787 26.9056 2.22932C29.2156 3.23077 31.2519 4.61944 33.0144 6.39534C34.7903 8.15789 36.179 10.2008 37.1804 12.5242C38.1952 14.8342 38.7026 17.2978 38.7026 19.9149C38.7026 22.5454 38.2019 25.0223 37.2005 27.3456C36.199 29.6556 34.8103 31.6919 33.0344 33.4545C31.2719 35.217 29.2356 36.599 26.9256 37.6005C24.6156 38.6019 22.1454 39.1026 19.5149 39.1026ZM19.5149 36.7392C21.8116 36.7392 23.9747 36.2986 26.0043 35.4173C28.0339 34.5494 29.8231 33.341 31.372 31.7921C32.9209 30.2432 34.136 28.4539 35.0173 26.4243C35.8986 24.3813 36.3392 22.2115 36.3392 19.9149C36.3392 17.6182 35.8986 15.4551 35.0173 13.4255C34.136 11.3959 32.9209 9.60665 31.372 8.05774C29.8231 6.50884 28.0339 5.29375 26.0043 4.41247C23.9747 3.5312 21.8049 3.09056 19.4949 3.09056C17.1982 3.09056 15.0351 3.5312 13.0055 4.41247C10.9759 5.29375 9.18663 6.50884 7.63772 8.05774C6.08882 9.60665 4.87373 11.3959 3.99245 13.4255C3.12453 15.4551 2.69057 17.6182 2.69057 19.9149C2.69057 22.2115 3.12453 24.3813 3.99245 26.4243C4.87373 28.4539 6.08882 30.2432 7.63772 31.7921C9.18663 33.341 10.9759 34.5494 13.0055 35.4173C15.0484 36.2986 17.2182 36.7392 19.5149 36.7392Z" fill="#223B3A"/>
</svg>
