<svg width="80" height="14" viewBox="0 0 80 14" fill="none" xmlns="http://www.w3.org/2000/svg">
<path d="M3.23198 9.76155V6.42331H3.41203L8.42493 0.234427H11.6089L6.58655 6.34829H6.02746L3.23198 9.76155ZM0.483887 13.7656V0.234427H3.3457V13.7656H0.483887ZM8.53865 13.7656L4.15117 7.35164L6.21698 5.49498L11.9596 13.7656H8.53865Z" fill="#223B3A"/>
<path d="M15.6651 13.7656L12.0452 0.234427H15.0113L17.1718 9.93034H17.2287L19.7494 0.234427H22.2605L24.7812 9.93034H24.8381L27.0081 0.234427H29.9742L26.3448 13.7656H23.5493L21.0381 4.69792H20.9813L18.4606 13.7656H15.6651Z" fill="#223B3A"/>
<path d="M31.1306 13.7656V0.234427H36.352C37.7229 0.234427 38.8916 0.49386 39.8582 1.01273C40.8311 1.53159 41.5766 2.29114 42.0946 3.29136C42.6126 4.28533 42.8716 5.4981 42.8716 6.92967V6.94843C42.8716 8.38 42.6126 9.60527 42.0946 10.6242C41.5829 11.6432 40.8406 12.4215 39.8677 12.9591C38.8948 13.4968 37.7229 13.7656 36.352 13.7656H31.1306ZM33.9925 11.4213H36.0109C36.8637 11.4213 37.5839 11.2525 38.1714 10.9149C38.759 10.5774 39.2012 10.0772 39.4981 9.4146C39.8014 8.75195 39.953 7.93302 39.953 6.9578V6.93905C39.953 5.99509 39.7982 5.19804 39.4886 4.54789C39.1854 3.89775 38.74 3.40701 38.1525 3.07569C37.565 2.73811 36.8511 2.56932 36.0109 2.56932H33.9925V11.4213Z" fill="#223B3A"/>
<path d="M50.4151 14C49.0821 14 47.926 13.7187 46.9468 13.1561C45.9739 12.5934 45.2221 11.7901 44.6914 10.7461C44.1671 9.69591 43.9049 8.44563 43.9049 6.99531V6.98593C43.9049 5.52936 44.1703 4.28221 44.7009 3.24447C45.2316 2.20049 45.9834 1.40031 46.9563 0.843938C47.9291 0.281313 49.0821 0 50.4151 0C51.5206 0 52.5061 0.212547 53.3716 0.637642C54.2371 1.06274 54.932 1.64724 55.4564 2.39116C55.9807 3.12882 56.2871 3.97901 56.3756 4.94173L56.3851 5.02612H53.5991L53.5612 4.86671C53.4538 4.3666 53.2611 3.93213 52.9831 3.5633C52.7051 3.19446 52.3482 2.91002 51.9123 2.70998C51.4827 2.50368 50.9836 2.40054 50.4151 2.40054C49.6822 2.40054 49.0473 2.58495 48.5103 2.95378C47.9734 3.32262 47.5564 3.85086 47.2595 4.53851C46.9689 5.21992 46.8236 6.0326 46.8236 6.97656V6.98593C46.8236 7.93615 46.9689 8.75821 47.2595 9.45211C47.5564 10.1398 47.9734 10.6711 48.5103 11.0462C49.0536 11.415 49.6886 11.5995 50.4151 11.5995C50.9647 11.5995 51.4543 11.4994 51.8839 11.2994C52.3198 11.0994 52.683 10.8118 52.9736 10.4367C53.2642 10.0554 53.4696 9.59589 53.5896 9.05827L53.6085 8.9645H56.3945L56.3851 9.06765C56.2966 10.0241 55.9871 10.8743 55.4564 11.6182C54.932 12.3621 54.2371 12.9466 53.3716 13.3717C52.5061 13.7906 51.5206 14 50.4151 14Z" fill="#223B3A"/>
<path d="M57.6079 13.7656V11.8245L62.4407 7.35164C63.0346 6.80777 63.4831 6.35454 63.7863 5.99196C64.0896 5.62938 64.2949 5.30431 64.4023 5.01675C64.516 4.72918 64.5729 4.42911 64.5729 4.11654V4.09779C64.5729 3.72896 64.4844 3.40388 64.3075 3.12257C64.1306 2.83501 63.8843 2.60996 63.5684 2.44742C63.2588 2.28489 62.9019 2.20362 62.4976 2.20362C62.0301 2.20362 61.6195 2.29739 61.2657 2.48493C60.9119 2.66622 60.6339 2.9194 60.4318 3.24447C60.2296 3.5633 60.1222 3.92588 60.1096 4.33222L60.1001 4.41661H57.4468V4.34159C57.4468 3.4914 57.6647 2.74124 58.1006 2.09109C58.5365 1.4347 59.1335 0.922081 59.8916 0.553249C60.656 0.184416 61.5184 0 62.4786 0C63.4452 0 64.2949 0.168788 65.0277 0.506363C65.7606 0.837687 66.3323 1.30029 66.7429 1.89417C67.1536 2.48806 67.3589 3.16946 67.3589 3.93838V3.95713C67.3589 4.501 67.2578 5.00737 67.0556 5.47622C66.8598 5.93883 66.5344 6.43269 66.0796 6.9578C65.6247 7.47667 65.0025 8.09556 64.2128 8.81447L60.2517 12.3871L61.351 10.4836V12.3871L60.2612 11.5151H67.5484V13.7656H57.6079Z" fill="#223B3A"/>
<path d="M75.0446 13.5269V11.0428H68.314V8.68048C68.6764 8.10553 69.0389 7.52746 69.4014 6.94626C69.7638 6.36506 70.1263 5.78699 70.4888 5.21204C70.8512 4.63084 71.2106 4.05277 71.5668 3.47782C71.9293 2.89662 72.2917 2.31542 72.6542 1.73422C73.0167 1.15302 73.3791 0.574949 73.7416 0H77.735V8.7836H79.5161V11.0428H77.735V13.5269H75.0446ZM70.7794 8.85859H75.1009V2.04357H75.0352C74.7478 2.49353 74.4634 2.94349 74.1822 3.39345C73.901 3.84341 73.6166 4.29337 73.3291 4.74333C73.0479 5.18704 72.7636 5.637 72.4761 6.09321C72.1949 6.54317 71.9105 6.99313 71.623 7.44309C71.3418 7.8868 71.0606 8.33364 70.7794 8.7836V8.85859Z" fill="#223B3A"/>
</svg>
