<svg width="55" height="26" viewBox="0 0 55 26" fill="none" xmlns="http://www.w3.org/2000/svg">
<path d="M11.9048 13.2048C10.8416 13.2048 9.86517 12.9228 8.97556 12.3586C8.09678 11.7945 7.39702 11.035 6.87627 10.0803C6.35552 9.12561 6.09514 8.06241 6.09514 6.89072C6.09514 5.76242 6.35552 4.72634 6.87627 3.78247C7.39702 2.83861 8.09678 2.09002 8.97556 1.53672C9.85433 0.972575 10.8307 0.690501 11.9048 0.690501C12.9788 0.690501 13.9553 0.967151 14.834 1.52045C15.7128 2.07375 16.4126 2.82233 16.9333 3.7662C17.4649 4.69921 17.7307 5.73529 17.7307 6.87444C17.7307 8.04614 17.4703 9.10934 16.9496 10.0641C16.4288 11.0188 15.7236 11.7836 14.834 12.3586C13.9553 12.9228 12.9788 13.2048 11.9048 13.2048ZM3.76803 25.6866C2.71567 25.6866 1.91827 25.5022 1.37582 25.1333C0.844215 24.7753 0.578414 24.222 0.578414 23.4734C0.578414 22.5947 0.827942 21.6562 1.327 20.6581C1.82605 19.66 2.55836 18.7216 3.52392 17.8428C4.48949 16.964 5.67203 16.248 7.07155 15.6947C8.47108 15.1414 10.0767 14.8647 11.8885 14.8647C13.7003 14.8647 15.306 15.1414 16.7055 15.6947C18.105 16.248 19.2875 16.964 20.2531 17.8428C21.2187 18.7216 21.951 19.66 22.45 20.6581C22.9491 21.6562 23.1986 22.5947 23.1986 23.4734C23.1986 24.222 22.9274 24.7753 22.3849 25.1333C21.8533 25.5022 21.0614 25.6866 20.009 25.6866H3.76803ZM43.1825 13.2862C42.1085 13.2862 41.132 13.0041 40.2533 12.44C39.3745 11.865 38.6693 11.1001 38.1377 10.1454C37.617 9.19071 37.3566 8.13293 37.3566 6.97208C37.3566 5.83294 37.617 4.79685 38.1377 3.86384C38.6693 2.91997 39.3745 2.17139 40.2533 1.61809C41.132 1.05394 42.1085 0.771868 43.1825 0.771868C44.2457 0.771868 45.2167 1.04852 46.0955 1.60182C46.9851 2.15512 47.6903 2.89828 48.211 3.83129C48.7426 4.76431 49.0084 5.80581 49.0084 6.95581C49.0084 8.11665 48.7426 9.17443 48.211 10.1291C47.6903 11.0839 46.9851 11.8487 46.0955 12.4237C45.2167 12.9987 44.2457 13.2862 43.1825 13.2862ZM35.0457 25.768C33.9934 25.768 33.196 25.5836 32.6535 25.2147C32.1219 24.8458 31.8561 24.2871 31.8561 23.5385C31.8561 22.6598 32.1057 21.7213 32.6047 20.7232C33.1038 19.7251 33.8361 18.7921 34.8016 17.9242C35.7672 17.0454 36.9498 16.3294 38.3493 15.7761C39.7488 15.2119 41.3545 14.9298 43.1662 14.9298C44.9672 14.9298 46.5674 15.2119 47.9669 15.7761C49.3773 16.3294 50.5653 17.0454 51.5308 17.9242C52.4964 18.7921 53.2287 19.7251 53.7278 20.7232C54.2268 21.7213 54.4763 22.6598 54.4763 23.5385C54.4763 24.2871 54.2051 24.8458 53.6627 25.2147C53.1311 25.5836 52.3391 25.768 51.2867 25.768H35.0457ZM22.6128 13.3025C22.2656 13.3025 21.9673 13.1831 21.7177 12.9445C21.479 12.6949 21.3597 12.3912 21.3597 12.0332C21.3597 11.6968 21.479 11.4093 21.7177 11.1707C21.9673 10.9211 22.2656 10.7964 22.6128 10.7964C22.9491 10.7964 23.2366 10.9211 23.4753 11.1707C23.7248 11.4093 23.8496 11.6968 23.8496 12.0332C23.8496 12.3912 23.7248 12.6949 23.4753 12.9445C23.2366 13.1831 22.9491 13.3025 22.6128 13.3025ZM27.5437 13.3025C27.1965 13.3025 26.8981 13.1831 26.6486 12.9445C26.4099 12.6949 26.2906 12.3912 26.2906 12.0332C26.2906 11.6968 26.4099 11.4093 26.6486 11.1707C26.8981 10.9211 27.1965 10.7964 27.5437 10.7964C27.88 10.7964 28.1729 10.9211 28.4224 11.1707C28.6719 11.4093 28.7967 11.6968 28.7967 12.0332C28.7967 12.3912 28.6719 12.6949 28.4224 12.9445C28.1729 13.1831 27.88 13.3025 27.5437 13.3025ZM32.4583 13.3025C32.1219 13.3025 31.829 13.1831 31.5795 12.9445C31.3408 12.6949 31.2215 12.3912 31.2215 12.0332C31.2215 11.6968 31.3408 11.4093 31.5795 11.1707C31.829 10.9211 32.1219 10.7964 32.4583 10.7964C32.8054 10.7964 33.1038 10.9211 33.3533 11.1707C33.6028 11.4093 33.7276 11.6968 33.7276 12.0332C33.7276 12.3912 33.6028 12.6949 33.3533 12.9445C33.1038 13.1831 32.8054 13.3025 32.4583 13.3025Z" fill="#223B3A"/>
</svg>
