<svg width="117" height="56" viewBox="0 0 117 56" fill="none" xmlns="http://www.w3.org/2000/svg">
<path d="M24.6499 27.9531C22.353 27.9531 20.2437 27.3438 18.3218 26.125C16.4233 24.9062 14.9116 23.2656 13.7866 21.2031C12.6616 19.1406 12.0991 16.8438 12.0991 14.3125C12.0991 11.875 12.6616 9.63672 13.7866 7.59766C14.9116 5.55859 16.4233 3.94141 18.3218 2.74609C20.2202 1.52734 22.3296 0.917969 24.6499 0.917969C26.9702 0.917969 29.0796 1.51562 30.978 2.71094C32.8765 3.90625 34.3882 5.52344 35.5132 7.5625C36.6616 9.57812 37.2358 11.8164 37.2358 14.2773C37.2358 16.8086 36.6733 19.1055 35.5483 21.168C34.4233 23.2305 32.8999 24.8828 30.978 26.125C29.0796 27.3438 26.9702 27.9531 24.6499 27.9531ZM7.07178 54.918C4.79834 54.918 3.07568 54.5195 1.90381 53.7227C0.755371 52.9492 0.181152 51.7539 0.181152 50.1367C0.181152 48.2383 0.720215 46.2109 1.79834 44.0547C2.87646 41.8984 4.4585 39.8711 6.54443 37.9727C8.63037 36.0742 11.1851 34.5273 14.2085 33.332C17.2319 32.1367 20.7007 31.5391 24.6147 31.5391C28.5288 31.5391 31.9976 32.1367 35.021 33.332C38.0444 34.5273 40.5991 36.0742 42.6851 37.9727C44.771 39.8711 46.353 41.8984 47.4312 44.0547C48.5093 46.2109 49.0483 48.2383 49.0483 50.1367C49.0483 51.7539 48.4624 52.9492 47.2905 53.7227C46.1421 54.5195 44.4312 54.918 42.1577 54.918H7.07178ZM92.2202 28.1289C89.8999 28.1289 87.7905 27.5195 85.8921 26.3008C83.9937 25.0586 82.4702 23.4062 81.3218 21.3438C80.1968 19.2812 79.6343 16.9961 79.6343 14.4883C79.6343 12.0273 80.1968 9.78906 81.3218 7.77344C82.4702 5.73438 83.9937 4.11719 85.8921 2.92188C87.7905 1.70312 89.8999 1.09375 92.2202 1.09375C94.5171 1.09375 96.6147 1.69141 98.5132 2.88672C100.435 4.08203 101.958 5.6875 103.083 7.70312C104.232 9.71875 104.806 11.9688 104.806 14.4531C104.806 16.9609 104.232 19.2461 103.083 21.3086C101.958 23.3711 100.435 25.0234 98.5132 26.2656C96.6147 27.5078 94.5171 28.1289 92.2202 28.1289ZM74.6421 55.0938C72.3687 55.0938 70.646 54.6953 69.4741 53.8984C68.3257 53.1016 67.7515 51.8945 67.7515 50.2773C67.7515 48.3789 68.2905 46.3516 69.3687 44.1953C70.4468 42.0391 72.0288 40.0234 74.1147 38.1484C76.2007 36.25 78.7554 34.7031 81.7788 33.5078C84.8022 32.2891 88.271 31.6797 92.1851 31.6797C96.0757 31.6797 99.5327 32.2891 102.556 33.5078C105.603 34.7031 108.169 36.25 110.255 38.1484C112.341 40.0234 113.923 42.0391 115.001 44.1953C116.08 46.3516 116.619 48.3789 116.619 50.2773C116.619 51.8945 116.033 53.1016 114.861 53.8984C113.712 54.6953 112.001 55.0938 109.728 55.0938H74.6421ZM47.7827 28.1641C47.0327 28.1641 46.3882 27.9062 45.8491 27.3906C45.3335 26.8516 45.0757 26.1953 45.0757 25.4219C45.0757 24.6953 45.3335 24.0742 45.8491 23.5586C46.3882 23.0195 47.0327 22.75 47.7827 22.75C48.5093 22.75 49.1304 23.0195 49.646 23.5586C50.1851 24.0742 50.4546 24.6953 50.4546 25.4219C50.4546 26.1953 50.1851 26.8516 49.646 27.3906C49.1304 27.9062 48.5093 28.1641 47.7827 28.1641ZM58.4351 28.1641C57.6851 28.1641 57.0405 27.9062 56.5015 27.3906C55.9858 26.8516 55.728 26.1953 55.728 25.4219C55.728 24.6953 55.9858 24.0742 56.5015 23.5586C57.0405 23.0195 57.6851 22.75 58.4351 22.75C59.1616 22.75 59.7944 23.0195 60.3335 23.5586C60.8726 24.0742 61.1421 24.6953 61.1421 25.4219C61.1421 26.1953 60.8726 26.8516 60.3335 27.3906C59.7944 27.9062 59.1616 28.1641 58.4351 28.1641ZM69.0522 28.1641C68.3257 28.1641 67.6929 27.9062 67.1538 27.3906C66.6382 26.8516 66.3804 26.1953 66.3804 25.4219C66.3804 24.6953 66.6382 24.0742 67.1538 23.5586C67.6929 23.0195 68.3257 22.75 69.0522 22.75C69.8022 22.75 70.4468 23.0195 70.9858 23.5586C71.5249 24.0742 71.7944 24.6953 71.7944 25.4219C71.7944 26.1953 71.5249 26.8516 70.9858 27.3906C70.4468 27.9062 69.8022 28.1641 69.0522 28.1641Z" fill="#223B3A"/>
</svg>
