<svg width="43" height="43" viewBox="0 0 43 43" fill="none" xmlns="http://www.w3.org/2000/svg">
<path d="M21.7547 42.785C18.8777 42.785 16.1758 42.2373 13.6493 41.142C11.1227 40.0466 8.89552 38.5351 6.96773 36.6073C5.03995 34.6795 3.52108 32.4523 2.41115 29.9257C1.31581 27.3846 0.768146 24.6754 0.768146 21.7984C0.768146 18.9359 1.31581 16.2414 2.41115 13.7148C3.50648 11.1736 5.01804 8.93914 6.94583 7.01136C8.88822 5.06897 11.1227 3.5501 13.6493 2.45477C16.1758 1.35944 18.8704 0.811768 21.7328 0.811768C24.6099 0.811768 27.3117 1.35944 29.8383 2.45477C32.3649 3.5501 34.5921 5.06897 36.5198 7.01136C38.4622 8.93914 39.9811 11.1736 41.0764 13.7148C42.1864 16.2414 42.7413 18.9359 42.7413 21.7984C42.7413 24.6754 42.1937 27.3846 41.0983 29.9257C40.003 32.4523 38.4841 34.6795 36.5417 36.6073C34.614 38.5351 32.3868 40.0466 29.8602 41.142C27.3336 42.2373 24.6318 42.785 21.7547 42.785ZM21.7547 39.6085C24.2229 39.6085 26.5304 39.1484 28.6772 38.2284C30.8387 37.3083 32.73 36.0377 34.3511 34.4166C35.9868 32.7809 37.2574 30.8896 38.1628 28.7428C39.0829 26.5813 39.543 24.2665 39.543 21.7984C39.543 19.3448 39.0829 17.0446 38.1628 14.8978C37.2574 12.7363 35.9868 10.845 34.3511 9.22393C32.73 7.58823 30.8387 6.31034 28.6772 5.39026C26.5304 4.47018 24.2156 4.01014 21.7328 4.01014C19.2647 4.01014 16.9572 4.47018 14.8103 5.39026C12.6635 6.31034 10.7795 7.58823 9.1584 9.22393C7.53731 10.845 6.26672 12.7363 5.34664 14.8978C4.42656 17.0446 3.96652 19.3448 3.96652 21.7984C3.96652 24.2665 4.42656 26.5813 5.34664 28.7428C6.26672 30.8896 7.53731 32.7809 9.1584 34.4166C10.7795 36.0377 12.6635 37.3083 14.8103 38.2284C16.9718 39.1484 19.2866 39.6085 21.7547 39.6085ZM9.8156 16.8036C9.8156 15.6353 10.188 14.7882 10.9328 14.2625L26.2018 29.4876C25.6468 29.9111 24.9312 30.1229 24.0549 30.1229H13.0797C12.0574 30.1229 11.2541 29.8381 10.67 29.2685C10.1004 28.699 9.8156 27.903 9.8156 26.8807V16.8036ZM27.319 24.1862L16.7162 13.5395H24.1426C26.2602 13.5395 27.319 14.6276 27.319 16.8036V24.1862ZM28.4801 18.9943L32.4671 15.6207C32.6424 15.4746 32.8249 15.3578 33.0148 15.2702C33.2046 15.1825 33.3945 15.1387 33.5843 15.1387C33.9641 15.1387 34.2708 15.2702 34.5044 15.5331C34.7381 15.7813 34.8549 16.1099 34.8549 16.5189V27.1436C34.8549 27.5525 34.7381 27.8884 34.5044 28.1513C34.2708 28.3996 33.9641 28.5237 33.5843 28.5237C33.3945 28.5237 33.2046 28.4799 33.0148 28.3923C32.8249 28.29 32.6424 28.1659 32.4671 28.0199L28.4801 24.6681V18.9943ZM31.2622 32.5984L10.9328 12.2471C10.7722 12.0864 10.6846 11.8819 10.67 11.6337C10.67 11.3854 10.7576 11.1809 10.9328 11.0203C11.1081 10.845 11.3199 10.7574 11.5681 10.7574C11.8164 10.7574 12.0209 10.845 12.1815 11.0203L32.5109 31.3278C32.6862 31.5176 32.7738 31.7294 32.7738 31.9631C32.7738 32.1967 32.6862 32.4085 32.5109 32.5984C32.3357 32.759 32.1239 32.8393 31.8756 32.8393C31.6273 32.8393 31.4229 32.759 31.2622 32.5984Z" fill="#223B3A"/>
</svg>
