<svg width="44" height="39" viewBox="0 0 44 39" fill="none" xmlns="http://www.w3.org/2000/svg">
<path d="M19.6708 25.9737V13.3755C19.6708 12.9749 19.8644 12.7012 20.2516 12.5543C20.6388 12.3941 21.0194 12.4275 21.3933 12.6545L31.6281 18.7433C31.9886 18.9569 32.1688 19.2707 32.1688 19.6846C32.1822 20.0852 32.0019 20.399 31.6281 20.626L21.3933 26.6747C20.9927 26.9284 20.6055 26.9752 20.2316 26.8149C19.8577 26.6547 19.6708 26.3743 19.6708 25.9737ZM0.763434 15.2582C0.763434 14.8576 0.903637 14.5305 1.18404 14.2768C1.46445 14.0231 1.79826 13.8963 2.18549 13.8963C2.67954 13.8963 3.08012 14.1166 3.38723 14.5572L5.39012 17.2211C5.68388 14.8843 6.37822 12.7012 7.47313 10.6716C8.56805 8.64199 9.97008 6.86609 11.6792 5.34389C13.4017 3.80833 15.3445 2.61327 17.5076 1.7587C19.6708 0.890781 21.9541 0.456821 24.3575 0.456821C26.988 0.456821 29.4583 0.957545 31.7683 1.95899C34.0916 2.96044 36.1346 4.34911 37.8971 6.12502C39.673 7.88756 41.0617 9.93052 42.0631 12.2539C43.0646 14.5639 43.5653 17.0274 43.5653 19.6446C43.5653 22.275 43.0646 24.7519 42.0631 27.0753C41.0617 29.3853 39.6797 31.4216 37.9172 33.1841C36.1546 34.9467 34.1183 36.3287 31.8083 37.3301C29.4983 38.3316 27.0214 38.8323 24.3776 38.8323C22.615 38.8323 20.9727 38.6187 19.4505 38.1914C17.9416 37.7641 16.573 37.21 15.3445 36.529C14.1294 35.848 13.0679 35.1269 12.1599 34.3658C11.2653 33.6181 10.5376 32.9304 9.97675 32.3029C9.78982 32.0625 9.65629 31.8422 9.57618 31.6419C9.49606 31.4283 9.456 31.2213 9.456 31.021C9.456 30.6204 9.58953 30.3 9.85658 30.0596C10.137 29.8059 10.4574 29.6791 10.818 29.6791C11.0316 29.6791 11.2453 29.7325 11.4589 29.8393C11.6725 29.9328 11.8795 30.0796 12.0798 30.2799C12.7875 31.1345 13.7288 31.9958 14.9039 32.8637C16.0789 33.7316 17.4609 34.4593 19.0499 35.0468C20.6388 35.6343 22.4147 35.9281 24.3776 35.9281C26.6475 35.9281 28.7639 35.5075 30.7268 34.6663C32.7029 33.8251 34.4321 32.6634 35.9143 31.1812C37.4098 29.6857 38.5714 27.9566 39.3993 25.9937C40.2405 24.0176 40.6611 21.9012 40.6611 19.6446C40.6478 17.4013 40.2205 15.2983 39.3793 13.3354C38.538 11.3593 37.3764 9.63008 35.8942 8.14794C34.4121 6.65244 32.6829 5.48409 30.7067 4.64287C28.7439 3.80166 26.6275 3.38105 24.3575 3.38105C22.2478 3.38105 20.2516 3.75492 18.3689 4.50267C16.4995 5.25042 14.8371 6.2986 13.3817 7.64722C11.9262 8.98248 10.7445 10.5447 9.83655 12.334C8.92857 14.1099 8.38111 16.0327 8.19418 18.1023L11.3187 15.6388C11.559 15.4518 11.8528 15.3584 12.2 15.3584C12.5605 15.3584 12.8743 15.4919 13.1413 15.7589C13.4217 16.0126 13.5619 16.3331 13.5619 16.7203C13.5619 17.2144 13.3683 17.6083 12.9811 17.902L7.99389 21.6274C7.59331 21.9212 7.19273 22.0681 6.79215 22.0681C6.16458 22.0681 5.61712 21.761 5.14978 21.1467L1.0839 16.1996C0.870255 15.9325 0.763434 15.6187 0.763434 15.2582Z" fill="#223B3A"/>
</svg>
