<svg width="66" height="76" viewBox="0 0 66 76" fill="none" xmlns="http://www.w3.org/2000/svg">
<path d="M27.7726 39.8445C27.7726 38.7664 27.8898 37.8406 28.1242 37.0671C28.382 36.2703 28.7804 35.5671 29.3195 34.9578C29.882 34.3484 30.632 33.7625 31.5695 33.2L58.3234 17.7664C59.3781 17.1804 60.4328 16.9226 61.4874 16.9929C62.5656 17.0632 63.4679 17.4734 64.1945 18.2234C64.9445 18.9734 65.3195 20.0632 65.3195 21.4929V52.7117C65.3195 53.7898 65.2023 54.7273 64.9679 55.5242C64.757 56.2976 64.3703 57.0007 63.8078 57.6335C63.2687 58.2429 62.4835 58.8406 61.4523 59.4265L35.2609 74.5789C33.8078 75.3992 32.507 75.7742 31.3585 75.7039C30.2335 75.6335 29.3546 75.1296 28.7218 74.1921C28.089 73.2781 27.7726 71.9539 27.7726 70.2195V39.8445ZM34.0656 37.5945C33.5499 37.8992 33.1867 38.2039 32.9757 38.5085C32.7648 38.8132 32.6593 39.3171 32.6593 40.0203V69.5515C32.6593 69.739 32.7179 69.8679 32.8351 69.9382C32.9523 70.0085 33.0929 69.9851 33.257 69.8679L59.0265 55.032C59.5656 54.7273 59.9289 54.4109 60.1164 54.0828C60.3273 53.7312 60.4328 53.239 60.4328 52.6062V23.1453C60.4328 22.9343 60.3507 22.7937 60.1867 22.7234C60.046 22.6531 59.8937 22.6765 59.7296 22.7937L34.0656 37.5945ZM30.4093 60.8328L21.0226 66.2468C19.5929 67.0671 18.3156 67.4304 17.1906 67.3367C16.0656 67.2664 15.1749 66.7742 14.5187 65.8601C13.8624 64.946 13.5343 63.6218 13.5343 61.8875V31.4773C13.5343 30.3992 13.6515 29.4734 13.8859 28.7C14.1437 27.9265 14.5539 27.2351 15.1164 26.6257C15.7023 25.9929 16.4523 25.407 17.3664 24.8679L44.1203 9.43433C45.1749 8.82495 46.2414 8.55542 47.3195 8.62573C48.3976 8.69604 49.2999 9.1062 50.0265 9.8562C50.7531 10.6062 51.1164 11.7078 51.1164 13.1609V24.8679L46.1945 27.4695V14.8132C46.1945 14.6257 46.1242 14.4968 45.9835 14.4265C45.8664 14.3328 45.714 14.3328 45.5265 14.4265L19.8976 29.2625C19.3585 29.5437 18.9835 29.8484 18.7726 30.1765C18.5851 30.4812 18.4914 30.9734 18.4914 31.6531V61.2195C18.4914 61.4304 18.5382 61.571 18.632 61.6414C18.7257 61.6882 18.8781 61.6531 19.089 61.5359L30.4093 55.032V60.8328ZM15.9953 53.696L7.73354 58.4773C6.30386 59.2976 5.02651 59.6726 3.90151 59.6023C2.77651 59.5085 1.88589 59.0046 1.22964 58.0906C0.573387 57.1765 0.245262 55.8523 0.245262 54.1179V23.7078C0.245262 22.6296 0.36245 21.7039 0.596825 20.9304C0.854637 20.157 1.26479 19.4656 1.82729 18.8562C2.38979 18.2234 3.13979 17.6375 4.07729 17.0984L30.8312 1.66479C31.8624 1.05542 32.9171 0.785889 33.9953 0.856201C35.0734 0.926514 35.9757 1.34839 36.7023 2.12183C37.4523 2.87183 37.8273 3.97339 37.8273 5.42651V16.2898L32.9054 18.7156V7.0437C32.9054 6.8562 32.8351 6.72729 32.6945 6.65698C32.5773 6.56323 32.4132 6.56323 32.2023 6.65698L6.57339 21.4929C6.05776 21.7976 5.68276 22.114 5.44839 22.4421C5.23745 22.7468 5.13198 23.2273 5.13198 23.8835V53.45C5.13198 53.6609 5.19057 53.8015 5.30776 53.8718C5.42495 53.9187 5.57729 53.8953 5.76479 53.8015L15.9953 47.8601V53.696Z" fill="#223B3A"/>
</svg>
