<svg width="39" height="45" viewBox="0 0 39 45" fill="none" xmlns="http://www.w3.org/2000/svg">
<path d="M16.4982 23.0317C16.4982 22.3983 16.5671 21.8544 16.7048 21.4C16.8563 20.9318 17.0903 20.5187 17.407 20.1607C17.7375 19.8027 18.1782 19.4584 18.729 19.128L34.4473 10.0605C35.067 9.71623 35.6866 9.56476 36.3062 9.60607C36.9397 9.64738 37.4698 9.88835 37.8967 10.329C38.3373 10.7696 38.5576 11.4099 38.5576 12.2499V30.5914C38.5576 31.2248 38.4888 31.7756 38.3511 32.2438C38.2272 32.6982 37.9999 33.1113 37.6695 33.4831C37.3528 33.8411 36.8915 34.1922 36.2856 34.5365L20.8977 43.4387C20.044 43.9207 19.2798 44.141 18.605 44.0997C17.9441 44.0584 17.4277 43.7623 17.0559 43.2115C16.6841 42.6745 16.4982 41.8965 16.4982 40.8775V23.0317ZM20.1955 21.7098C19.8925 21.8888 19.6791 22.0678 19.5552 22.2468C19.4312 22.4259 19.3693 22.7219 19.3693 23.135V40.4851C19.3693 40.5952 19.4037 40.671 19.4725 40.7123C19.5414 40.7536 19.624 40.7398 19.7204 40.671L34.8604 31.9546C35.1771 31.7756 35.3906 31.5897 35.5007 31.3969C35.6246 31.1904 35.6866 30.9012 35.6866 30.5294V13.2207C35.6866 13.0967 35.6384 13.0141 35.542 12.9728C35.4594 12.9315 35.3699 12.9453 35.2735 13.0141L20.1955 21.7098ZM18.0474 35.3627L12.5325 38.5435C11.6925 39.0255 10.9421 39.2389 10.2811 39.1838C9.62017 39.1425 9.09691 38.8534 8.71135 38.3163C8.3258 37.7793 8.13302 37.0013 8.13302 35.9823V18.1159C8.13302 17.4825 8.20187 16.9385 8.33956 16.4841C8.49103 16.0297 8.73201 15.6235 9.06249 15.2655C9.40673 14.8937 9.84737 14.5495 10.3844 14.2328L26.1027 5.16527C26.7224 4.80725 27.3489 4.6489 27.9823 4.69021C28.6158 4.73152 29.1459 4.97249 29.5728 5.41313C29.9996 5.85377 30.2131 6.50095 30.2131 7.35469V14.2328L27.3214 15.7612V8.32547C27.3214 8.21531 27.2801 8.13957 27.1975 8.09826C27.1286 8.04318 27.0391 8.04318 26.9289 8.09826L11.8715 16.8146C11.5548 16.9799 11.3345 17.1589 11.2106 17.3516C11.1004 17.5306 11.0454 17.8198 11.0454 18.2191V35.5899C11.0454 35.7138 11.0729 35.7964 11.128 35.8377C11.1831 35.8653 11.2726 35.8446 11.3965 35.7758L18.0474 31.9546V35.3627ZM9.57886 31.1697L4.72496 33.9788C3.885 34.4608 3.13454 34.6811 2.47358 34.6398C1.81263 34.5847 1.28937 34.2886 0.903814 33.7516C0.518257 33.2146 0.325478 32.4366 0.325478 31.4176V13.5511C0.325478 12.9177 0.394328 12.3738 0.532027 11.9194C0.683496 11.465 0.924469 11.0588 1.25495 10.7008C1.58542 10.329 2.02606 9.98474 2.57686 9.66803L18.2952 0.600547C18.9011 0.24253 19.5207 0.0841759 20.1541 0.125486C20.7876 0.166795 21.3177 0.414654 21.7446 0.869061C22.1852 1.3097 22.4055 1.95688 22.4055 2.81062V9.19297L19.5138 10.6182V3.76074C19.5138 3.65058 19.4725 3.57485 19.3899 3.53354C19.3211 3.47846 19.2247 3.47846 19.1007 3.53354L4.04335 12.2499C3.74042 12.4289 3.5201 12.6148 3.3824 12.8076C3.25847 12.9866 3.1965 13.2689 3.1965 13.6544V31.0252C3.1965 31.1491 3.23093 31.2317 3.29978 31.273C3.36863 31.3006 3.45813 31.2868 3.56829 31.2317L9.57886 27.741V31.1697Z" fill="#223B3A"/>
</svg>
