{
	"asset":{
		"version":"2.0",
		"generator":"Maxon Cinema 4D 2024.3.1 (#200000219)"
	},
	"scenes":[{
		"nodes":[0]
	}],
	"nodes":[{
		"name":"클로너",
		"children":[1,
		2,
		3,
		4,
		5,
		6,
		7,
		8,
		9,
		10,
		11,
		12,
		13,
		14,
		15,
		16,
		17,
		18]
	},
	{
		"name":"원기둥 0",
		"translation":[0.0,
		0.5450000166893005,
		0.0],
		"mesh":0,
		"rotation":[0.0,
		0.0,
		0.0,
		-1.0],
		"scale":[1.0,
		1.0,
		1.0]
	},
	{
		"name":"원기둥 1",
		"translation":[0.18640097975730897,
		0.512132465839386,
		0.0],
		"mesh":0,
		"rotation":[-0.0014447118155658246,
		-0.00860611628741026,
		0.18172384798526765,
		-0.983310878276825],
		"scale":[1.0,
		1.0,
		1.0]
	},
	{
		"name":"원기둥 2",
		"translation":[0.3503192365169525,
		0.4174942076206207,
		0.0],
		"mesh":0,
		"rotation":[-0.00569888623431325,
		-0.016495732590556146,
		0.3573548495769501,
		-0.9338055849075317],
		"scale":[1.0,
		1.0,
		1.0]
	},
	{
		"name":"원기둥 3",
		"translation":[0.4719838500022888,
		0.27250000834465029,
		0.0],
		"mesh":0,
		"rotation":[-0.012525972910225392,
		-0.022985488176345826,
		0.5210062861442566,
		-0.8531513214111328],
		"scale":[1.0,
		1.0,
		1.0]
	},
	{
		"name":"원기둥 4",
		"translation":[0.5367202162742615,
		0.09463825821876526,
		0.0],
		"mesh":0,
		"rotation":[-0.02154270000755787,
		-0.02745700255036354,
		0.6671965718269348,
		-0.744063675403595],
		"scale":[1.0,
		1.0,
		1.0]
	},
	{
		"name":"원기둥 5",
		"translation":[0.5367202162742615,
		-0.09463825821876526,
		0.0],
		"mesh":0,
		"rotation":[0.03223511576652527,
		0.029386190697550775,
		-0.7910346388816834,
		0.610214352607727],
		"scale":[1.0,
		1.0,
		1.0]
	},
	{
		"name":"원기둥 6",
		"translation":[0.4719838500022888,
		-0.27250000834465029,
		0.0],
		"mesh":0,
		"rotation":[0.04398021101951599,
		0.028368880972266198,
		-0.8883848190307617,
		0.45610669255256655],
		"scale":[1.0,
		1.0,
		1.0]
	},
	{
		"name":"원기둥 7",
		"translation":[0.3503192365169525,
		-0.4174942076206207,
		0.0],
		"mesh":0,
		"rotation":[0.056072287261486056,
		0.024141719564795495,
		-0.9560065269470215,
		0.2869226932525635],
		"scale":[1.0,
		1.0,
		1.0]
	},
	{
		"name":"원기둥 8",
		"translation":[0.18640097975730897,
		-0.512132465839386,
		0.0],
		"mesh":0,
		"rotation":[0.0677531361579895,
		0.01659752056002617,
		-0.9916626811027527,
		0.10834715515375138],
		"scale":[1.0,
		1.0,
		1.0]
	},
	{
		"name":"원기둥 9",
		"translation":[6.674325148065818e-17,
		-0.5450000166893005,
		0.0],
		"mesh":0,
		"rotation":[0.07824483513832092,
		0.005794402677565813,
		-0.9941949248313904,
		-0.0736248642206192],
		"scale":[1.0,
		1.0,
		1.0]
	},
	{
		"name":"원기둥 10",
		"translation":[-0.18640097975730897,
		-0.512132465839386,
		0.0],
		"mesh":0,
		"rotation":[0.08678395301103592,
		-0.008041717112064362,
		-0.9635610580444336,
		-0.2528912425041199],
		"scale":[1.0,
		1.0,
		1.0]
	},
	{
		"name":"원기둥 11",
		"translation":[-0.3503192365169525,
		-0.4174942076206207,
		0.0],
		"mesh":0,
		"rotation":[0.09265585243701935,
		-0.024521443992853166,
		-0.900835394859314,
		-0.42344918847084048],
		"scale":[1.0,
		1.0,
		1.0]
	},
	{
		"name":"원기둥 12",
		"translation":[-0.4719838500022888,
		-0.27250000834465029,
		0.0],
		"mesh":0,
		"rotation":[0.09522780030965805,
		-0.04310297220945358,
		-0.808170735836029,
		-0.5795980095863342],
		"scale":[1.0,
		1.0,
		1.0]
	},
	{
		"name":"원기둥 13",
		"translation":[-0.5367202162742615,
		-0.09463825821876526,
		0.0],
		"mesh":0,
		"rotation":[0.09397950023412705,
		-0.06310959905385971,
		-0.6887239813804627,
		-0.7161314487457275],
		"scale":[1.0,
		1.0,
		1.0]
	},
	{
		"name":"원기둥 14",
		"translation":[-0.5367202162742615,
		0.09463825821876526,
		0.0],
		"mesh":0,
		"rotation":[-0.08852998167276383,
		0.0837530866265297,
		0.5465476512908936,
		0.8285128474235535],
		"scale":[1.0,
		1.0,
		1.0]
	},
	{
		"name":"원기둥 15",
		"translation":[-0.4719838500022888,
		0.27250000834465029,
		0.0],
		"mesh":0,
		"rotation":[-0.07865960150957108,
		0.10416214913129807,
		0.38645121455192568,
		0.9130270481109619],
		"scale":[1.0,
		1.0,
		1.0]
	},
	{
		"name":"원기둥 16",
		"translation":[-0.3503192365169525,
		0.4174942076206207,
		0.0],
		"mesh":0,
		"rotation":[-0.06432634592056275,
		0.12341504544019699,
		0.2138369232416153,
		0.9669046401977539],
		"scale":[1.0,
		1.0,
		1.0]
	},
	{
		"name":"원기둥 17",
		"translation":[-0.18640097975730897,
		0.512132465839386,
		0.0],
		"mesh":0,
		"rotation":[-0.045675620436668399,
		0.140575110912323,
		0.03451615571975708,
		0.988413393497467],
		"scale":[1.0,
		1.0,
		1.0]
	}],
	"meshes":[{
		"name":"원기둥 0",
		"primitives":[{
			"attributes":{
				"POSITION":1,
				"NORMAL":2,
				"TEXCOORD_0":3
			},
			"indices":0,
			"material":0
		}]
	}],
	"accessors":[{
		"bufferView":0,
		"type":"SCALAR",
		"componentType":5123,
		"count":17760,
		"byteOffset":0,
		"min":[0],
		"max":[17759]
	},
	{
		"bufferView":1,
		"type":"VEC3",
		"componentType":5126,
		"count":17760,
		"byteOffset":0,
		"min":[-0.012000000104308129,
		-0.10000000149011612,
		-0.10000000149011612],
		"max":[0.012000000104308129,
		0.10000000149011612,
		0.10000000149011612]
	},
	{
		"bufferView":1,
		"type":"VEC3",
		"componentType":5126,
		"count":17760,
		"byteOffset":12,
		"min":[-1.0,
		-1.0,
		-1.0],
		"max":[1.0,
		1.0,
		1.0]
	},
	{
		"bufferView":1,
		"type":"VEC2",
		"componentType":5126,
		"count":17760,
		"byteOffset":24,
		"min":[0.0,
		0.0],
		"max":[1.0,
		1.0]
	}],
	"bufferViews":[{
		"buffer":0,
		"byteOffset":0,
		"byteLength":35520,
		"target":34963
	},
	{
		"buffer":0,
		"byteOffset":35520,
		"byteLength":568320,
		"target":34962,
		"byteStride":32
	}],
	"buffers":[{
		"uri":"data:application/octet-stream;base64,",
		"byteLength":603840
	}],
	"materials":[{
		"pbrMetallicRoughness":{
			"baseColorFactor":[1.0,
			1.0,
			1.0,
			1.0],
			"metallicFactor":1.0,
			"roughnessFactor":1.0
		},
		"emissiveFactor":[0.0,
		0.0,
		0.0],
		"alphaMode":"OPAQUE",
		"doubleSided":false,
		"name":""
	}]
}