<svg width="416" height="22" viewBox="0 0 416 22" fill="none" xmlns="http://www.w3.org/2000/svg">
<g clip-path="url(#clip0_2448_1331)">
<path d="M400.584 17.5114V1.05627H404.028V7.73869H411.441V1.05627H414.884V17.5114H411.441V10.5781H404.028V17.5114H400.584Z" fill="black"/>
<path d="M391.49 17.7931C386.678 17.7931 383.656 14.5774 383.656 9.27476V9.26336C383.656 3.96078 386.689 0.767822 391.49 0.767822C395.482 0.767822 398.344 3.28798 398.663 6.77744L398.675 6.88006H395.322L395.276 6.68618C394.888 4.87305 393.543 3.6871 391.49 3.6871C388.856 3.6871 387.168 5.80815 387.168 9.25196V9.26336C387.168 12.73 388.856 14.8738 391.49 14.8738C393.475 14.8738 394.866 13.7335 395.31 11.7835L395.333 11.6695H398.686L398.675 11.7949C398.355 15.2958 395.47 17.7931 391.49 17.7931Z" fill="black"/>
<path d="M371.016 17.5114V1.05627H381.918V3.89573H374.46V7.84131H381.495V10.5325H374.46V14.6719H381.918V17.5114H371.016Z" fill="black"/>
<path d="M361.135 17.5114V3.89573H356.379V1.05627H369.345V3.89573H364.578V17.5114H361.135Z" fill="black"/>
<path d="M349.144 17.7931C345.233 17.7931 342.712 16.0028 342.519 12.9695L342.507 12.787H345.757L345.78 12.9125C345.996 14.1897 347.354 14.9879 349.235 14.9879C351.14 14.9879 352.337 14.1555 352.337 12.9011V12.8897C352.337 11.7721 351.527 11.2133 349.486 10.7914L347.753 10.4493C344.503 9.79934 342.86 8.24848 342.86 5.77391V5.76252C342.86 2.75202 345.484 0.767822 349.132 0.767822C352.941 0.767822 355.279 2.67219 355.439 5.55728L355.45 5.77391H352.2L352.189 5.63711C352.018 4.3485 350.832 3.56166 349.132 3.56166C347.365 3.57306 346.305 4.38271 346.305 5.55728V5.56868C346.305 6.60635 347.148 7.21076 349.041 7.58709L350.786 7.94058C354.23 8.62476 355.781 10.0274 355.781 12.616V12.6274C355.781 15.7861 353.295 17.7931 349.144 17.7931Z" fill="black"/>
<path d="M333.207 17.7931C328.315 17.7931 325.271 14.5203 325.271 9.2862V9.26336C325.271 4.0292 328.338 0.767822 333.207 0.767822C338.088 0.767822 341.144 4.04061 341.144 9.26336V9.2862C341.144 14.5203 338.099 17.7931 333.207 17.7931ZM333.207 14.8738C335.944 14.8738 337.632 12.6958 337.632 9.2862V9.26336C337.632 5.83095 335.91 3.6871 333.207 3.6871C330.516 3.6871 328.783 5.81955 328.783 9.26336V9.2862C328.783 12.73 330.505 14.8738 333.207 14.8738Z" fill="black"/>
<path d="M311.579 17.5114V1.05627H318.193C321.66 1.05627 323.975 3.29134 323.975 6.67818V6.70097C323.975 10.0878 321.66 12.3228 318.193 12.3228H315.023V17.5114H311.579ZM317.349 3.78169H315.023V9.63164H317.349C319.322 9.63164 320.485 8.58252 320.485 6.71237V6.68957C320.485 4.8194 319.322 3.78169 317.349 3.78169Z" fill="black"/>
<path d="M296.209 20.3719C289.96 20.3719 285.729 16.5403 285.729 10.5307V10.5193C285.729 4.74919 289.8 0.826416 295.684 0.826416C301.386 0.826416 305.035 4.32727 305.035 9.66405V9.67549C305.035 13.1991 303.393 15.4912 300.862 15.4912C299.481 15.4912 298.341 14.8868 297.771 13.8491L297.6 13.5412H297.509C296.87 14.8868 295.776 15.5939 294.362 15.5939C292.069 15.5939 290.473 13.6096 290.473 10.5535V10.5421C290.473 7.7369 292.149 5.74129 294.35 5.74129C295.662 5.74129 296.677 6.40268 297.155 7.50883H297.246V6.02639H300.143V11.1351C300.143 12.3097 300.508 12.9824 301.147 12.9824C301.945 12.9824 302.458 11.7509 302.458 9.84654V9.83514C302.458 5.65006 299.892 3.01587 295.684 3.01587C291.271 3.01587 288.306 6.01495 288.306 10.5421V10.5535C288.306 15.3658 291.442 18.1254 296.528 18.1254C297.84 18.1254 299.139 17.9201 300.382 17.5096V19.7219C299.048 20.1666 297.691 20.3719 296.209 20.3719ZM295.342 13.0167C296.254 13.0167 296.847 12.1386 296.847 10.6562V10.6105C296.847 9.18514 296.243 8.31847 295.342 8.31847C294.419 8.31847 293.825 9.1737 293.825 10.6448V10.6562C293.825 12.15 294.419 13.0167 295.342 13.0167Z" fill="black"/>
<path d="M271.268 21.5355C270.618 21.5355 269.957 21.4557 269.568 21.3873V18.9127C269.808 18.9584 270.196 19.0268 270.686 19.0268C271.678 19.0268 272.226 18.7417 272.522 17.9092L272.67 17.5101L268.348 5.28564H272.009L274.586 14.8417H274.677L277.266 5.28564H280.778L276.582 17.7268C275.624 20.6118 273.982 21.5355 271.268 21.5355Z" fill="black"/>
<path d="M249.494 17.5091V5.28469H252.823V7.33731H252.892C253.394 5.94609 254.671 5.03381 256.313 5.03381C258.023 5.03381 259.266 5.94609 259.677 7.55399H259.745C260.293 6.01452 261.752 5.03381 263.543 5.03381C265.937 5.03381 267.545 6.68731 267.545 9.15043V17.5091H264.215V9.98292C264.215 8.56887 263.508 7.79346 262.22 7.79346C260.954 7.79346 260.122 8.71712 260.122 10.0741V17.5091H256.917V9.88025C256.917 8.56887 256.176 7.79346 254.944 7.79346C253.679 7.79346 252.823 8.75131 252.823 10.1311V17.5091H249.494Z" fill="black"/>
<path d="M242.315 17.7601C238.575 17.7601 236.306 15.3311 236.306 11.4197V11.4083C236.306 7.51975 238.598 5.03381 242.179 5.03381C245.759 5.03381 248.005 7.46276 248.005 11.1574V12.1838H239.59C239.624 14.1338 240.685 15.2741 242.384 15.2741C243.752 15.2741 244.585 14.5215 244.824 13.8372L244.847 13.7688H247.903L247.869 13.8943C247.493 15.696 245.805 17.7601 242.315 17.7601ZM242.236 7.51975C240.867 7.51975 239.841 8.43206 239.624 10.0855H244.812C244.607 8.39782 243.615 7.51975 242.236 7.51975Z" fill="black"/>
<path d="M227.597 17.7623C224.518 17.7623 222.625 15.3676 222.625 11.3992V11.3878C222.625 7.40799 224.518 5.03607 227.597 5.03607C229.33 5.03607 230.699 5.92552 231.36 7.40799H231.429V1.05627H234.758V17.5114H231.429V15.4246H231.36C230.71 16.8728 229.365 17.7623 227.597 17.7623ZM228.715 15.0026C230.334 15.0026 231.44 13.6114 231.44 11.3992V11.3878C231.44 9.18693 230.323 7.79567 228.715 7.79567C227.061 7.79567 226.012 9.15269 226.012 11.3878V11.3992C226.012 13.6228 227.05 15.0026 228.715 15.0026Z" fill="black"/>
<path d="M214.148 17.703C211.697 17.703 210.043 16.1636 210.043 14.0083V13.9855C210.043 11.7619 211.765 10.4619 214.799 10.268L217.82 10.0855V9.33292C217.82 8.24957 217.113 7.57678 215.814 7.57678C214.57 7.57678 213.818 8.15835 213.658 8.9452L213.635 9.04781H210.591L210.602 8.91096C210.784 6.65312 212.723 5.03381 215.95 5.03381C219.109 5.03381 221.15 6.66452 221.15 9.12764V17.5091H217.82V15.6846H217.752C217.056 16.939 215.756 17.703 214.148 17.703ZM213.339 13.8372C213.339 14.7381 214.08 15.2741 215.232 15.2741C216.726 15.2741 217.82 14.3162 217.82 13.039V12.161L215.3 12.3206C214.012 12.4004 213.339 12.9478 213.339 13.8145V13.8372Z" fill="black"/>
<path d="M203.605 17.7601C199.876 17.7601 197.572 15.3311 197.572 11.3855V11.3741C197.572 7.46276 199.91 5.03381 203.571 5.03381C206.889 5.03381 208.999 7.07504 209.124 9.7206V9.80043H206.034L206.011 9.69781C205.806 8.53468 204.996 7.64521 203.616 7.64521C201.985 7.64521 200.959 9.04781 200.959 11.3855V11.3969C200.959 13.7917 201.985 15.1486 203.628 15.1486C204.962 15.1486 205.794 14.3276 206.022 13.096L206.034 12.9934H209.136V13.0618C208.976 15.7302 206.866 17.7601 203.605 17.7601Z" fill="black"/>
<path d="M181.774 17.5114L187.521 1.05627H191.569L197.305 17.5114H193.69L192.447 13.5202H186.632L185.389 17.5114H181.774ZM189.505 4.24923L187.43 10.943H191.649L189.574 4.24923H189.505Z" fill="black"/>
<path d="M169.866 17.5091V5.28469H173.196V7.41713H173.265C173.63 5.91186 174.622 5.03381 176.047 5.03381C176.412 5.03381 176.754 5.09083 177.005 5.15925V8.08992C176.732 7.9759 176.275 7.90747 175.797 7.90747C174.154 7.90747 173.196 8.88816 173.196 10.6671V17.5091H169.866Z" fill="black"/>
<path d="M162.688 17.7601C158.948 17.7601 156.679 15.3311 156.679 11.4197V11.4083C156.679 7.51975 158.971 5.03381 162.551 5.03381C166.132 5.03381 168.379 7.46276 168.379 11.1574V12.1838H159.963C159.997 14.1338 161.058 15.2741 162.757 15.2741C164.125 15.2741 164.958 14.5215 165.197 13.8372L165.22 13.7688H168.276L168.242 13.8943C167.866 15.696 166.178 17.7601 162.688 17.7601ZM162.608 7.51975C161.24 7.51975 160.214 8.43206 159.997 10.0855H165.186C164.98 8.39782 163.988 7.51975 162.608 7.51975Z" fill="black"/>
<path d="M143.491 21.5004V5.28469H146.821V7.41713H146.9C147.562 5.9347 148.896 5.03381 150.63 5.03381C153.731 5.03381 155.624 7.40573 155.624 11.3855V11.3969C155.624 15.3653 153.731 17.7601 150.675 17.7601C148.93 17.7601 147.551 16.8706 146.889 15.4223H146.821V21.5004H143.491ZM149.535 15.0004C151.188 15.0004 152.237 13.6206 152.237 11.3969V11.3855C152.237 9.15043 151.188 7.79346 149.535 7.79346C147.915 7.79346 146.809 9.18467 146.809 11.3969V11.4083C146.809 13.6092 147.915 15.0004 149.535 15.0004Z" fill="black"/>
<path d="M135.946 17.7601C132.228 17.7601 129.891 15.3767 129.891 11.3969V11.3741C129.891 7.43992 132.285 5.03381 135.935 5.03381C139.595 5.03381 142.001 7.41713 142.001 11.3741V11.3969C142.001 15.3881 139.641 17.7601 135.946 17.7601ZM135.958 15.1486C137.577 15.1486 138.614 13.7802 138.614 11.3969V11.3741C138.614 9.01362 137.554 7.64521 135.935 7.64521C134.327 7.64521 133.277 9.01362 133.277 11.3741V11.3969C133.277 13.7917 134.315 15.1486 135.958 15.1486Z" fill="black"/>
<path d="M124.994 17.5114V1.05627H128.323V17.5114H124.994Z" fill="black"/>
<path d="M117.735 17.7601C113.995 17.7601 111.726 15.3311 111.726 11.4197V11.4083C111.726 7.51975 114.018 5.03381 117.598 5.03381C121.179 5.03381 123.426 7.46276 123.426 11.1574V12.1838H115.01C115.044 14.1338 116.105 15.2741 117.804 15.2741C119.172 15.2741 120.004 14.5215 120.244 13.8372L120.267 13.7688H123.323L123.289 13.8943C122.912 15.696 121.225 17.7601 117.735 17.7601ZM117.655 7.51975C116.287 7.51975 115.261 8.43206 115.044 10.0855H120.233C120.027 8.39782 119.035 7.51975 117.655 7.51975Z" fill="black"/>
<path d="M103.726 17.5101L99.4955 5.28564H103.053L105.608 14.568H105.676L108.196 5.28564H111.674L107.478 17.5101H103.726Z" fill="black"/>
<path d="M93.775 17.7601C90.0346 17.7601 87.7655 15.3311 87.7655 11.4197V11.4083C87.7655 7.51975 90.0575 5.03381 93.6382 5.03381C97.2188 5.03381 99.4655 7.46276 99.4655 11.1574V12.1838H91.0496C91.0837 14.1338 92.1444 15.2741 93.8437 15.2741C95.2118 15.2741 96.0446 14.5215 96.2837 13.8372L96.3066 13.7688H99.3627L99.3286 13.8943C98.9522 15.696 97.2646 17.7601 93.775 17.7601ZM93.6951 7.51975C92.3271 7.51975 91.3004 8.43206 91.0837 10.0855H96.2725C96.067 8.39782 95.0749 7.51975 93.6951 7.51975Z" fill="black"/>
<path d="M72.3776 17.5114V1.05627H78.6608C83.5871 1.05627 86.5064 3.98695 86.5064 9.19833V9.22112C86.5064 14.4439 83.5983 17.5114 78.6608 17.5114H72.3776ZM75.8214 14.6606H78.2502C81.3292 14.6606 82.9939 12.7904 82.9939 9.23252V9.20973C82.9939 5.77731 81.2722 3.89573 78.2502 3.89573H75.8214V14.6606Z" fill="black"/>
<path d="M56.1203 17.7601C52.3799 17.7601 50.1108 15.3311 50.1108 11.4197V11.4083C50.1108 7.51975 52.4028 5.03381 55.9835 5.03381C59.5642 5.03381 61.8108 7.46276 61.8108 11.1574V12.1838H53.3949C53.429 14.1338 54.4898 15.2741 56.1885 15.2741C57.5571 15.2741 58.3894 14.5215 58.6291 13.8372L58.6519 13.7688H61.7081L61.674 13.8943C61.2975 15.696 59.6099 17.7601 56.1203 17.7601ZM56.0405 7.51975C54.6719 7.51975 53.6457 8.43206 53.429 10.0855H58.6178C58.4123 8.39782 57.4202 7.51975 56.0405 7.51975Z" fill="black"/>
<path d="M45.2135 17.5114V1.05627H48.5432V17.5114H45.2135Z" fill="black"/>
<path d="M31.5002 21.5004V5.28469H34.83V7.41713H34.9099C35.5713 5.9347 36.9055 5.03381 38.6388 5.03381C41.7405 5.03381 43.6335 7.40573 43.6335 11.3855V11.3969C43.6335 15.3653 41.7405 17.7601 38.6844 17.7601C36.9397 17.7601 35.5599 16.8706 34.8985 15.4223H34.83V21.5004H31.5002ZM37.5441 15.0004C39.1976 15.0004 40.2467 13.6206 40.2467 11.3969V11.3855C40.2467 9.15043 39.1976 7.79346 37.5441 7.79346C35.9248 7.79346 34.8186 9.18467 34.8186 11.3969V11.4083C34.8186 13.6092 35.9248 15.0004 37.5441 15.0004Z" fill="black"/>
<path d="M17.8671 21.5004V5.28469H21.1969V7.41713H21.2767C21.9381 5.9347 23.2723 5.03381 25.0056 5.03381C28.1073 5.03381 30.0003 7.40573 30.0003 11.3855V11.3969C30.0003 15.3653 28.1073 17.7601 25.0512 17.7601C23.3065 17.7601 21.9267 16.8706 21.2653 15.4223H21.1969V21.5004H17.8671ZM23.9109 15.0004C25.5644 15.0004 26.6135 13.6206 26.6135 11.3969V11.3855C26.6135 9.15043 25.5644 7.79346 23.9109 7.79346C22.2916 7.79346 21.1855 9.18467 21.1855 11.3969V11.4083C21.1855 13.6092 22.2916 15.0004 23.9109 15.0004Z" fill="black"/>
<path d="M1.16724 17.5114L6.91457 1.05627H10.9628L16.6987 17.5114H13.0838L11.8409 13.5202H6.0251L4.78212 17.5114H1.16724ZM8.89874 4.24923L6.82335 10.943H11.0426L8.96717 4.24923H8.89874Z" fill="black"/>
</g>
<defs>
<clipPath id="clip0_2448_1331">
<rect width="414.304" height="21.0188" fill="white" transform="translate(0.8479 0.694946)"/>
</clipPath>
</defs>
</svg>
