<svg width="122.28" height="100" viewBox="0 0 450 368" fill="none" xmlns="http://www.w3.org/2000/svg">
<path d="M399.055 356.26V299.469H410.947V322.532H436.542V299.469H448.434V356.26H436.542V332.331H410.947V356.26H399.055Z" fill="black"/>
<path d="M367.653 357.234C351.037 357.234 340.602 346.137 340.602 327.836V327.797C340.602 309.496 351.076 298.477 367.653 298.477C381.435 298.477 391.319 307.175 392.423 319.217L392.461 319.571H380.884L380.727 318.902C379.389 312.645 374.742 308.552 367.653 308.552C358.558 308.552 352.729 315.872 352.729 327.757V327.797C352.729 339.762 358.558 347.159 367.653 347.159C374.505 347.159 379.31 343.224 380.845 336.494L380.924 336.101H392.502L392.461 336.535C391.36 348.617 381.397 357.234 367.653 357.234Z" fill="black"/>
<path d="M296.949 356.26V299.469H334.594V309.27H308.841V322.886H333.138V332.175H308.841V346.461H334.594V356.26H296.949Z" fill="black"/>
<path d="M262.827 356.26V309.27H246.406V299.469H291.179V309.27H274.719V356.26H262.827Z" fill="black"/>
<path d="M221.426 357.234C207.919 357.234 199.217 351.056 198.548 340.587L198.508 339.959H209.73L209.809 340.391C210.558 344.799 215.243 347.554 221.742 347.554C228.317 347.554 232.451 344.68 232.451 340.352V340.312C232.451 336.456 229.656 334.528 222.608 333.07L216.622 331.89C205.4 329.646 199.729 324.295 199.729 315.754V315.715C199.729 305.324 208.785 298.477 221.387 298.477C234.538 298.477 242.611 305.049 243.163 315.006L243.201 315.754H231.979L231.94 315.282C231.35 310.834 227.253 308.12 221.387 308.12C215.284 308.158 211.621 310.954 211.621 315.006V315.046C211.621 318.627 214.535 320.713 221.071 322.012L227.097 323.232C238.988 325.594 244.343 330.433 244.343 339.367V339.407C244.343 350.309 235.759 357.234 221.426 357.234Z" fill="black"/>
<path d="M166.395 357.234C149.502 357.234 138.988 345.941 138.988 327.876V327.797C138.988 309.733 149.581 298.477 166.395 298.477C183.248 298.477 193.801 309.772 193.801 327.797V327.876C193.801 345.941 183.288 357.234 166.395 357.234ZM166.395 347.159C175.845 347.159 181.674 339.643 181.674 327.876V327.797C181.674 315.951 175.727 308.552 166.395 308.552C157.102 308.552 151.117 315.912 151.117 327.797V327.876C151.117 339.762 157.062 347.159 166.395 347.159Z" fill="black"/>
<path d="M91.707 356.26V299.469H114.546C126.517 299.469 134.51 307.184 134.51 318.873V318.95C134.51 330.639 126.517 338.354 114.546 338.354H103.599V356.26H91.707ZM111.632 308.875H103.599V329.065H111.632C118.444 329.065 122.461 325.445 122.461 318.99V318.911C122.461 312.457 118.444 308.875 111.632 308.875Z" fill="black"/>
<path d="M38.6332 366.128C17.0543 366.128 2.44531 352.905 2.44531 332.165V332.124C2.44531 312.211 16.503 298.672 36.8219 298.672C56.5106 298.672 69.1114 310.754 69.1114 329.173V329.213C69.1114 341.374 63.4411 349.284 54.6993 349.284C49.9346 349.284 45.9969 347.198 44.028 343.616L43.4374 342.554H43.1224C40.9172 347.198 37.1369 349.637 32.2542 349.637C24.3392 349.637 18.8264 342.789 18.8264 332.242V332.203C18.8264 322.522 24.6148 315.635 32.2148 315.635C36.7432 315.635 40.2477 317.918 41.9016 321.735H42.2166V316.618H52.2185V334.251C52.2185 338.303 53.4785 340.626 55.6837 340.626C58.4401 340.626 60.2122 336.375 60.2122 329.803V329.763C60.2122 315.319 51.3522 306.229 36.8219 306.229C21.5829 306.229 11.3446 316.58 11.3446 332.203V332.242C11.3446 348.851 22.1735 358.374 39.7358 358.374C44.2643 358.374 48.7533 357.667 53.0454 356.25V363.884C48.4382 365.421 43.7524 366.128 38.6332 366.128ZM35.6406 340.744C38.7908 340.744 40.8383 337.713 40.8383 332.597V332.44C40.8383 327.52 38.7514 324.529 35.6406 324.529C32.4509 324.529 30.4033 327.48 30.4033 332.558V332.597C30.4033 337.752 32.4509 340.744 35.6406 340.744Z" fill="black"/>
<path d="M310.143 270.199C307.898 270.199 305.614 269.924 304.275 269.688V261.148C305.103 261.306 306.442 261.541 308.135 261.541C311.561 261.541 313.451 260.558 314.475 257.683L314.987 256.307L300.062 214.117H312.703L321.603 247.097H321.917L330.856 214.117H342.983L328.493 257.055C325.185 267.012 319.516 270.199 310.143 270.199Z" fill="black"/>
<path d="M234.949 256.305V214.116H246.448V221.2H246.683C248.417 216.398 252.827 213.25 258.498 213.25C264.404 213.25 268.696 216.398 270.114 221.948H270.349C272.24 216.635 277.28 213.25 283.462 213.25C291.731 213.25 297.283 218.957 297.283 227.458V256.305H285.786V230.331C285.786 225.45 283.344 222.774 278.894 222.774C274.523 222.774 271.649 225.962 271.649 230.645V256.305H260.585V229.976C260.585 225.45 258.025 222.774 253.772 222.774C249.401 222.774 246.448 226.08 246.448 230.842V256.305H234.949Z" fill="black"/>
<path d="M210.162 257.171C197.246 257.171 189.41 248.788 189.41 235.289V235.251C189.41 221.829 197.325 213.25 209.689 213.25C222.054 213.25 229.81 221.632 229.81 234.384V237.927H200.75C200.868 244.655 204.531 248.592 210.397 248.592C215.123 248.592 217.997 245.995 218.825 243.633L218.904 243.396H229.457L229.338 243.83C228.039 250.047 222.212 257.171 210.162 257.171ZM209.886 221.829C205.16 221.829 201.617 224.977 200.868 230.684H218.784C218.076 224.86 214.65 221.829 209.886 221.829Z" fill="black"/>
<path d="M159.344 257.18C148.713 257.18 142.176 248.916 142.176 235.22V235.181C142.176 221.445 148.713 213.259 159.344 213.259C165.33 213.259 170.056 216.329 172.34 221.445H172.575V199.523H184.074V256.315H172.575V249.112H172.34C170.094 254.111 165.448 257.18 159.344 257.18ZM163.204 247.657C168.794 247.657 172.615 242.854 172.615 235.22V235.181C172.615 227.585 168.756 222.783 163.204 222.783C157.494 222.783 153.871 227.466 153.871 235.181V235.22C153.871 242.895 157.454 247.657 163.204 247.657Z" fill="black"/>
<path d="M112.899 256.974C104.432 256.974 98.7227 251.661 98.7227 244.223V244.144C98.7227 236.469 104.669 231.983 115.143 231.314L125.578 230.684V228.087C125.578 224.349 123.137 222.026 118.648 222.026C114.356 222.026 111.757 224.034 111.205 226.749L111.127 227.104H100.613L100.652 226.631C101.282 218.839 107.976 213.25 119.12 213.25C130.028 213.25 137.076 218.878 137.076 227.379V256.305H125.578V250.009H125.342C122.94 254.337 118.451 256.974 112.899 256.974ZM110.103 243.633C110.103 246.741 112.662 248.592 116.639 248.592C121.798 248.592 125.578 245.286 125.578 240.878V237.848L116.876 238.399C112.426 238.675 110.103 240.562 110.103 243.554V243.633Z" fill="black"/>
<path d="M76.4871 257.171C63.6106 257.171 55.6562 248.788 55.6562 235.172V235.131C55.6562 221.632 63.7287 213.25 76.3688 213.25C87.8277 213.25 95.1125 220.294 95.5458 229.425V229.701H84.8743L84.7956 229.346C84.0869 225.332 81.2911 222.263 76.5264 222.263C70.8954 222.263 67.3514 227.104 67.3514 235.172V235.21C67.3514 243.475 70.8954 248.158 76.5658 248.158C81.1729 248.158 84.0475 245.326 84.835 241.075L84.8743 240.72H95.5851V240.957C95.0338 250.165 87.749 257.171 76.4871 257.171Z" fill="black"/>
<path d="M1.10156 256.315L20.9479 199.523H34.9269L54.7337 256.315H42.2511L37.959 242.54H17.8764L13.5842 256.315H1.10156ZM27.7995 210.543L20.6329 233.645H35.2025L28.0358 210.543H27.7995Z" fill="black"/>
<path d="M341.367 156.36V114.171H352.866V121.53H353.103C354.362 116.335 357.788 113.305 362.711 113.305C363.97 113.305 365.153 113.501 366.019 113.738V123.852C365.074 123.458 363.498 123.222 361.845 123.222C356.174 123.222 352.866 126.607 352.866 132.746V156.36H341.367Z" fill="black"/>
<path d="M316.58 157.226C303.664 157.226 295.828 148.843 295.828 135.344V135.304C295.828 121.884 303.743 113.305 316.107 113.305C328.472 113.305 336.23 121.687 336.23 134.439V137.981H307.168C307.288 144.711 310.949 148.646 316.817 148.646C321.541 148.646 324.417 146.049 325.243 143.687L325.322 143.451H335.875L335.757 143.884C334.457 150.102 328.63 157.226 316.58 157.226ZM316.304 121.884C311.58 121.884 308.035 125.033 307.288 130.739H325.204C324.496 124.915 321.068 121.884 316.304 121.884Z" fill="black"/>
<path d="M250.289 170.134V114.171H261.787V121.53H262.062C264.347 116.414 268.954 113.305 274.939 113.305C285.65 113.305 292.186 121.491 292.186 135.226V135.265C292.186 148.961 285.65 157.226 275.097 157.226C269.071 157.226 264.307 154.156 262.023 149.158H261.787V170.134H250.289ZM271.158 147.702C276.868 147.702 280.491 142.94 280.491 135.265V135.226C280.491 127.512 276.868 122.829 271.158 122.829C265.566 122.829 261.747 127.63 261.747 135.265V135.304C261.747 142.9 265.566 147.702 271.158 147.702Z" fill="black"/>
<path d="M224.234 157.226C211.397 157.226 203.324 149 203.324 135.265V135.186C203.324 121.609 211.594 113.305 224.195 113.305C236.836 113.305 245.144 121.53 245.144 135.186V135.265C245.144 149.04 236.994 157.226 224.234 157.226ZM224.274 148.213C229.866 148.213 233.448 143.49 233.448 135.265V135.186C233.448 127.04 229.787 122.317 224.195 122.317C218.644 122.317 215.019 127.04 215.019 135.186V135.265C215.019 143.53 218.603 148.213 224.274 148.213Z" fill="black"/>
<path d="M186.418 156.369V99.5781H197.916V156.369H186.418Z" fill="black"/>
<path d="M161.353 157.226C148.438 157.226 140.602 148.843 140.602 135.344V135.304C140.602 121.884 148.516 113.305 160.881 113.305C173.245 113.305 181.003 121.687 181.003 134.439V137.981H151.942C152.06 144.711 155.723 148.646 161.59 148.646C166.315 148.646 169.189 146.049 170.016 143.687L170.095 143.451H180.649L180.531 143.884C179.231 150.102 173.403 157.226 161.353 157.226ZM161.078 121.884C156.353 121.884 152.808 125.033 152.06 130.739H169.978C169.268 124.915 165.842 121.884 161.078 121.884Z" fill="black"/>
<path d="M112.976 156.369L98.3672 114.18H110.653L119.473 146.215H119.71L128.412 114.18H140.422L125.931 156.369H112.976Z" fill="black"/>
<path d="M78.6152 157.226C65.6994 157.226 57.8633 148.843 57.8633 135.344V135.304C57.8633 121.884 65.7781 113.305 78.1426 113.305C90.5073 113.305 98.2646 121.687 98.2646 134.439V137.981H69.2039C69.3222 144.711 72.9842 148.646 78.8515 148.646C83.5768 148.646 86.4513 146.049 87.2783 143.687L87.357 143.451H97.9102L97.7922 143.884C96.4926 150.102 90.6647 157.226 78.6152 157.226ZM78.3396 121.884C73.6143 121.884 70.0704 125.033 69.3222 130.739H87.2389C86.5301 124.915 83.1042 121.884 78.3396 121.884Z" fill="black"/>
<path d="M4.72656 156.369V99.5781H26.4235C43.4346 99.5781 53.5153 109.693 53.5153 127.678V127.757C53.5153 145.782 43.474 156.369 26.4235 156.369H4.72656ZM16.6185 146.53H25.0059C35.6379 146.53 41.3871 140.075 41.3871 127.796V127.718C41.3871 115.872 35.4411 109.378 25.0059 109.378H16.6185V146.53Z" fill="black"/>
<path d="M190.861 58.8977C177.945 58.8977 170.109 50.5149 170.109 37.0158V36.9764C170.109 23.5561 178.024 14.9766 190.388 14.9766C202.753 14.9766 210.511 23.3594 210.511 36.1106V39.6527H181.45C181.567 46.3825 185.23 50.3181 191.096 50.3181C195.822 50.3181 198.696 47.7207 199.524 45.3592L199.603 45.1231H210.156L210.038 45.5561C208.738 51.7742 202.911 58.8977 190.861 58.8977ZM190.585 23.5561C185.859 23.5561 182.316 26.7047 181.567 32.4112H199.485C198.775 26.5865 195.35 23.5561 190.585 23.5561Z" fill="black"/>
<path d="M153.199 58.0404V1.25H164.697V58.0404H153.199Z" fill="black"/>
<path d="M105.848 71.8064V15.8424H117.346V23.2019H117.622C119.905 18.0857 124.513 14.9766 130.498 14.9766C141.209 14.9766 147.745 23.1626 147.745 36.8978V36.9371C147.745 50.6329 141.209 58.8977 130.656 58.8977C124.631 58.8977 119.866 55.828 117.582 50.8298H117.346V71.8064H105.848ZM126.718 49.3736C132.427 49.3736 136.05 44.6116 136.05 36.9371V36.8978C136.05 29.184 132.427 24.5007 126.718 24.5007C121.126 24.5007 117.307 29.3021 117.307 36.9371V36.9764C117.307 44.5721 121.126 49.3736 126.718 49.3736Z" fill="black"/>
<path d="M58.7695 71.8064V15.8424H70.2678V23.2019H70.5434C72.8273 18.0857 77.4345 14.9766 83.4199 14.9766C94.1305 14.9766 100.667 23.1626 100.667 36.8978V36.9371C100.667 50.6329 94.1305 58.8977 83.5774 58.8977C77.5526 58.8977 72.7879 55.828 70.504 50.8298H70.2678V71.8064H58.7695ZM79.6397 49.3736C85.3494 49.3736 88.9721 44.6116 88.9721 36.9371V36.8978C88.9721 29.184 85.3494 24.5007 79.6397 24.5007C74.0481 24.5007 70.2284 29.3021 70.2284 36.9371V36.9764C70.2284 44.5721 74.0481 49.3736 79.6397 49.3736Z" fill="black"/>
<path d="M1.10156 58.0404L20.9479 1.25H34.9269L54.7337 58.0404H42.2511L37.959 44.2659H17.8764L13.5842 58.0404H1.10156ZM27.7995 12.2696L20.6329 35.3714H35.2025L28.0358 12.2696H27.7995Z" fill="black"/>
</svg>
