<svg width="887" height="45" viewBox="0 0 887 45" fill="none" xmlns="http://www.w3.org/2000/svg">
<g clip-path="url(#clip0_4231_2476)">
<path d="M855.812 36.0029V0.773438H863.186V15.0801H879.055V0.773438H886.428V36.0029H879.055V21.1592H863.186V36.0029H855.812Z" fill="black"/>
<path d="M836.343 36.6064C826.04 36.6064 819.57 29.7217 819.57 18.3691V18.3447C819.57 6.99219 826.064 0.15625 836.343 0.15625C844.888 0.15625 851.016 5.55176 851.699 13.0225L851.724 13.2422H844.546L844.448 12.8271C843.618 8.94531 840.737 6.40625 836.343 6.40625C830.703 6.40625 827.09 10.9473 827.09 18.3203V18.3447C827.09 25.7666 830.703 30.3564 836.343 30.3564C840.591 30.3564 843.569 27.915 844.521 23.7402L844.57 23.4961H851.748L851.724 23.7646C851.04 31.2598 844.863 36.6064 836.343 36.6064Z" fill="black"/>
<path d="M792.508 36.0029V0.773438H815.848V6.85254H799.881V15.2998H814.944V21.0615H799.881V29.9238H815.848V36.0029H792.508Z" fill="black"/>
<path d="M771.353 36.0029V6.85254H761.172V0.773438H788.931V6.85254H778.726V36.0029H771.353Z" fill="black"/>
<path d="M745.682 36.6064C737.308 36.6064 731.912 32.7734 731.497 26.2793L731.473 25.8887H738.431L738.479 26.1572C738.943 28.8916 741.849 30.6006 745.877 30.6006C749.954 30.6006 752.518 28.8184 752.518 26.1328V26.1084C752.518 23.7158 750.784 22.5195 746.414 21.6162L742.703 20.8838C735.745 19.4922 732.229 16.1719 732.229 10.874V10.8496C732.229 4.4043 737.845 0.15625 745.657 0.15625C753.812 0.15625 758.816 4.2334 759.158 10.4102L759.183 10.874H752.225L752.2 10.5811C751.834 7.82227 749.295 6.1377 745.657 6.1377C741.873 6.16211 739.603 7.89551 739.603 10.4102V10.4346C739.603 12.6562 741.409 13.9502 745.462 14.7559L749.197 15.5127C756.57 16.9775 759.891 19.9805 759.891 25.5225V25.5469C759.891 32.3096 754.568 36.6064 745.682 36.6064Z" fill="black"/>
<path d="M711.562 36.6064C701.089 36.6064 694.57 29.5996 694.57 18.3936V18.3447C694.57 7.13867 701.138 0.15625 711.562 0.15625C722.012 0.15625 728.555 7.16309 728.555 18.3447V18.3936C728.555 29.5996 722.036 36.6064 711.562 36.6064ZM711.562 30.3564C717.422 30.3564 721.035 25.6934 721.035 18.3936V18.3447C721.035 10.9961 717.349 6.40625 711.562 6.40625C705.801 6.40625 702.09 10.9717 702.09 18.3447V18.3936C702.09 25.7666 705.776 30.3564 711.562 30.3564Z" fill="black"/>
<path d="M665.258 36.0029V0.773438H679.418C686.84 0.773438 691.796 5.55859 691.796 12.8096V12.8584C691.796 20.1094 686.84 24.8945 679.418 24.8945H672.631V36.0029H665.258ZM677.611 6.6084H672.631V19.1328H677.611C681.835 19.1328 684.325 16.8867 684.325 12.8828V12.834C684.325 8.83008 681.835 6.6084 677.611 6.6084Z" fill="black"/>
<path d="M632.351 42.127C618.972 42.127 609.914 33.9238 609.914 21.0576V21.0332C609.914 8.67969 618.63 0.28125 631.228 0.28125C643.435 0.28125 651.247 7.77637 651.247 19.2021V19.2266C651.247 26.7705 647.731 31.6777 642.312 31.6777C639.357 31.6777 636.916 30.3838 635.695 28.1621L635.329 27.5029H635.134C633.767 30.3838 631.423 31.8975 628.396 31.8975C623.488 31.8975 620.07 27.6494 620.07 21.1064V21.082C620.07 15.0762 623.659 10.8037 628.371 10.8037C631.179 10.8037 633.352 12.2197 634.377 14.5879H634.572V11.4141H640.773V22.3516C640.773 24.8662 641.555 26.3066 642.922 26.3066C644.631 26.3066 645.729 23.6699 645.729 19.5928V19.5684C645.729 10.6084 640.236 4.96875 631.228 4.96875C621.779 4.96875 615.432 11.3896 615.432 21.082V21.1064C615.432 31.4092 622.146 37.3174 633.034 37.3174C635.842 37.3174 638.625 36.8779 641.286 35.999V40.7354C638.43 41.6875 635.524 42.127 632.351 42.127ZM630.495 26.3799C632.448 26.3799 633.718 24.5 633.718 21.3262V21.2285C633.718 18.1768 632.424 16.3213 630.495 16.3213C628.518 16.3213 627.248 18.1523 627.248 21.3018V21.3262C627.248 24.5244 628.518 26.3799 630.495 26.3799Z" fill="black"/>
<path d="M578.953 44.6182C577.562 44.6182 576.146 44.4473 575.315 44.3008V39.0029C575.828 39.1006 576.658 39.2471 577.708 39.2471C579.832 39.2471 581.004 38.6367 581.639 36.8545L581.956 36L572.703 9.82812H580.54L586.058 30.2871H586.253L591.795 9.82812H599.314L590.33 36.4639C588.279 42.6406 584.764 44.6182 578.953 44.6182Z" fill="black"/>
<path d="M532.336 35.998V9.82617H539.465V14.2207H539.611C540.686 11.2422 543.42 9.28906 546.936 9.28906C550.598 9.28906 553.259 11.2422 554.138 14.6846H554.284C555.456 11.3887 558.581 9.28906 562.414 9.28906C567.541 9.28906 570.983 12.8291 570.983 18.1025V35.998H563.854V19.8848C563.854 16.8574 562.341 15.1973 559.582 15.1973C556.872 15.1973 555.09 17.1748 555.09 20.0801V35.998H548.229V19.665C548.229 16.8574 546.643 15.1973 544.006 15.1973C541.296 15.1973 539.465 17.248 539.465 20.2021V35.998H532.336Z" fill="black"/>
<path d="M516.968 36.5352C508.96 36.5352 504.102 31.335 504.102 22.9609V22.9365C504.102 14.6113 509.009 9.28906 516.675 9.28906C524.341 9.28906 529.15 14.4893 529.15 22.3994V24.5967H511.133C511.206 28.7715 513.477 31.2129 517.114 31.2129C520.044 31.2129 521.826 29.6016 522.339 28.1367L522.388 27.9902H528.931L528.857 28.2588C528.052 32.1162 524.438 36.5352 516.968 36.5352ZM516.797 14.6113C513.867 14.6113 511.67 16.5645 511.206 20.1045H522.314C521.875 16.4912 519.751 14.6113 516.797 14.6113Z" fill="black"/>
<path d="M485.457 36.54C478.865 36.54 474.812 31.4131 474.812 22.917V22.8926C474.812 14.3721 478.865 9.29395 485.457 9.29395C489.168 9.29395 492.098 11.1982 493.514 14.3721H493.66V0.773438H500.789V36.0029H493.66V31.5352H493.514C492.122 34.6357 489.241 36.54 485.457 36.54ZM487.85 30.6318C491.316 30.6318 493.685 27.6533 493.685 22.917V22.8926C493.685 18.1807 491.292 15.2021 487.85 15.2021C484.31 15.2021 482.063 18.1074 482.063 22.8926V22.917C482.063 27.6777 484.285 30.6318 487.85 30.6318Z" fill="black"/>
<path d="M456.664 36.4131C451.415 36.4131 447.875 33.1172 447.875 28.5029V28.4541C447.875 23.6934 451.562 20.9102 458.056 20.4951L464.525 20.1045V18.4932C464.525 16.1738 463.012 14.7334 460.229 14.7334C457.567 14.7334 455.956 15.9785 455.614 17.6631L455.565 17.8828H449.047L449.071 17.5898C449.462 12.7559 453.612 9.28906 460.521 9.28906C467.284 9.28906 471.654 12.7803 471.654 18.0537V35.998H464.525V32.0918H464.379C462.89 34.7773 460.106 36.4131 456.664 36.4131ZM454.931 28.1367C454.931 30.0654 456.518 31.2129 458.983 31.2129C462.182 31.2129 464.525 29.1621 464.525 26.4277V24.5479L459.13 24.8896C456.371 25.0605 454.931 26.2324 454.931 28.0879V28.1367Z" fill="black"/>
<path d="M434.091 36.5352C426.107 36.5352 421.176 31.335 421.176 22.8877V22.8633C421.176 14.4893 426.181 9.28906 434.018 9.28906C441.122 9.28906 445.639 13.6592 445.907 19.3232V19.4941H439.291L439.242 19.2744C438.803 16.7842 437.069 14.8799 434.115 14.8799C430.624 14.8799 428.427 17.8828 428.427 22.8877V22.9121C428.427 28.0391 430.624 30.9443 434.14 30.9443C436.996 30.9443 438.778 29.1865 439.267 26.5498L439.291 26.3301H445.932V26.4766C445.59 32.1895 441.073 36.5352 434.091 36.5352Z" fill="black"/>
<path d="M387.352 36.0029L399.656 0.773438H408.323L420.604 36.0029H412.864L410.203 27.458H397.752L395.091 36.0029H387.352ZM403.904 7.60938L399.461 21.9404H408.494L404.051 7.60938H403.904Z" fill="black"/>
<path d="M361.859 35.998V9.82617H368.988V14.3916H369.135C369.916 11.1689 372.04 9.28906 375.092 9.28906C375.873 9.28906 376.605 9.41113 377.143 9.55762V15.832C376.557 15.5879 375.58 15.4414 374.555 15.4414C371.039 15.4414 368.988 17.541 368.988 21.3496V35.998H361.859Z" fill="black"/>
<path d="M346.491 36.5352C338.483 36.5352 333.625 31.335 333.625 22.9609V22.9365C333.625 14.6113 338.532 9.28906 346.198 9.28906C353.864 9.28906 358.674 14.4893 358.674 22.3994V24.5967H340.656C340.729 28.7715 343 31.2129 346.638 31.2129C349.567 31.2129 351.35 29.6016 351.862 28.1367L351.911 27.9902H358.454L358.381 28.2588C357.575 32.1162 353.962 36.5352 346.491 36.5352ZM346.32 14.6113C343.391 14.6113 341.193 16.5645 340.729 20.1045H351.838C351.398 16.4912 349.274 14.6113 346.32 14.6113Z" fill="black"/>
<path d="M305.391 44.543V9.82617H312.52V14.3916H312.69C314.106 11.2178 316.963 9.28906 320.674 9.28906C327.314 9.28906 331.367 14.3672 331.367 22.8877V22.9121C331.367 31.4082 327.314 36.5352 320.771 36.5352C317.036 36.5352 314.082 34.6309 312.666 31.5303H312.52V44.543H305.391ZM318.33 30.627C321.87 30.627 324.116 27.6729 324.116 22.9121V22.8877C324.116 18.1025 321.87 15.1973 318.33 15.1973C314.863 15.1973 312.495 18.1758 312.495 22.9121V22.9365C312.495 27.6484 314.863 30.627 318.33 30.627Z" fill="black"/>
<path d="M289.237 36.5352C281.278 36.5352 276.273 31.4326 276.273 22.9121V22.8633C276.273 14.4404 281.4 9.28906 289.213 9.28906C297.05 9.28906 302.201 14.3916 302.201 22.8633V22.9121C302.201 31.457 297.147 36.5352 289.237 36.5352ZM289.262 30.9443C292.729 30.9443 294.95 28.0146 294.95 22.9121V22.8633C294.95 17.8096 292.68 14.8799 289.213 14.8799C285.771 14.8799 283.524 17.8096 283.524 22.8633V22.9121C283.524 28.0391 285.746 30.9443 289.262 30.9443Z" fill="black"/>
<path d="M265.789 36.0029V0.773438H272.918V36.0029H265.789Z" fill="black"/>
<path d="M250.249 36.5352C242.241 36.5352 237.383 31.335 237.383 22.9609V22.9365C237.383 14.6113 242.29 9.28906 249.956 9.28906C257.622 9.28906 262.432 14.4893 262.432 22.3994V24.5967H244.414C244.487 28.7715 246.758 31.2129 250.396 31.2129C253.325 31.2129 255.107 29.6016 255.62 28.1367L255.669 27.9902H262.212L262.139 28.2588C261.333 32.1162 257.72 36.5352 250.249 36.5352ZM250.078 14.6113C247.148 14.6113 244.951 16.5645 244.487 20.1045H255.596C255.156 16.4912 253.032 14.6113 250.078 14.6113Z" fill="black"/>
<path d="M220.257 36L211.199 9.82812H218.816L224.285 29.7012H224.432L229.827 9.82812H237.273L228.289 36H220.257Z" fill="black"/>
<path d="M198.952 36.5352C190.944 36.5352 186.086 31.335 186.086 22.9609V22.9365C186.086 14.6113 190.993 9.28906 198.659 9.28906C206.325 9.28906 211.135 14.4893 211.135 22.3994V24.5967H193.117C193.19 28.7715 195.461 31.2129 199.099 31.2129C202.028 31.2129 203.811 29.6016 204.323 28.1367L204.372 27.9902H210.915L210.842 28.2588C210.036 32.1162 206.423 36.5352 198.952 36.5352ZM198.781 14.6113C195.852 14.6113 193.654 16.5645 193.19 20.1045H204.299C203.859 16.4912 201.735 14.6113 198.781 14.6113Z" fill="black"/>
<path d="M153.141 36.0029V0.773438H166.593C177.14 0.773438 183.39 7.04785 183.39 18.2051V18.2539C183.39 29.4355 177.164 36.0029 166.593 36.0029H153.141ZM160.514 29.8994H165.714C172.306 29.8994 175.87 25.8955 175.87 18.2783V18.2295C175.87 10.8809 172.184 6.85254 165.714 6.85254H160.514V29.8994Z" fill="black"/>
<path d="M118.335 36.5352C110.327 36.5352 105.469 31.335 105.469 22.9609V22.9365C105.469 14.6113 110.376 9.28906 118.042 9.28906C125.708 9.28906 130.518 14.4893 130.518 22.3994V24.5967H112.5C112.573 28.7715 114.844 31.2129 118.481 31.2129C121.411 31.2129 123.193 29.6016 123.706 28.1367L123.755 27.9902H130.298L130.225 28.2588C129.419 32.1162 125.806 36.5352 118.335 36.5352ZM118.164 14.6113C115.234 14.6113 113.037 16.5645 112.573 20.1045H123.682C123.242 16.4912 121.118 14.6113 118.164 14.6113Z" fill="black"/>
<path d="M94.9844 36.0029V0.773438H102.113V36.0029H94.9844Z" fill="black"/>
<path d="M65.625 44.543V9.82617H72.7539V14.3916H72.9248C74.3408 11.2178 77.1973 9.28906 80.9082 9.28906C87.5488 9.28906 91.6016 14.3672 91.6016 22.8877V22.9121C91.6016 31.4082 87.5488 36.5352 81.0059 36.5352C77.2705 36.5352 74.3164 34.6309 72.9004 31.5303H72.7539V44.543H65.625ZM78.5645 30.627C82.1045 30.627 84.3506 27.6729 84.3506 22.9121V22.8877C84.3506 18.1025 82.1045 15.1973 78.5645 15.1973C75.0977 15.1973 72.7295 18.1758 72.7295 22.9121V22.9365C72.7295 27.6484 75.0977 30.627 78.5645 30.627Z" fill="black"/>
<path d="M36.4375 44.543V9.82617H43.5664V14.3916H43.7373C45.1533 11.2178 48.0098 9.28906 51.7207 9.28906C58.3613 9.28906 62.4141 14.3672 62.4141 22.8877V22.9121C62.4141 31.4082 58.3613 36.5352 51.8184 36.5352C48.083 36.5352 45.1289 34.6309 43.7129 31.5303H43.5664V44.543H36.4375ZM49.377 30.627C52.917 30.627 55.1631 27.6729 55.1631 22.9121V22.8877C55.1631 18.1025 52.917 15.1973 49.377 15.1973C45.9102 15.1973 43.542 18.1758 43.542 22.9121V22.9365C43.542 27.6484 45.9102 30.627 49.377 30.627Z" fill="black"/>
<path d="M0.683594 36.0029L12.9883 0.773438H21.6553L33.9355 36.0029H26.1963L23.5352 27.458H11.084L8.42285 36.0029H0.683594ZM17.2363 7.60938L12.793 21.9404H21.8262L17.3828 7.60938H17.2363Z" fill="black"/>
</g>
<defs>
<clipPath id="clip0_4231_2476">
<rect width="887" height="45" fill="white"/>
</clipPath>
</defs>
</svg>
