<svg width="800" height="204" viewBox="0 0 800 204" fill="none" xmlns="http://www.w3.org/2000/svg">
<path fill-rule="evenodd" clip-rule="evenodd" d="M260.707 144.56H223.33V58.5134H260.707C287.63 58.5134 301.112 72.075 301.112 99.188C301.102 129.429 287.63 144.56 260.707 144.56ZM239.3 130.708H258.289C276.177 130.708 285.112 120.205 285.112 99.178C285.112 81.2792 276.167 72.3248 258.289 72.3248H239.3V130.708Z" fill="#632CA6"/>
<path fill-rule="evenodd" clip-rule="evenodd" d="M317.841 144.56H301.432L338.039 58.5134H355.218L392.605 144.56H375.425L364.572 121.094H336.959L342.446 107.253H360.355L346.244 74.9332L317.841 144.56Z" fill="#632CA6"/>
<path fill-rule="evenodd" clip-rule="evenodd" d="M383.58 58.5134H448.999V72.3448H424.285V144.56H408.315V72.3448H383.58V58.5134Z" fill="#632CA6"/>
<path fill-rule="evenodd" clip-rule="evenodd" d="M457.214 144.56H440.805L477.412 58.5134H494.591L531.978 144.56H514.778L503.925 121.094H476.312L481.799 107.253H499.708L485.607 74.9332L457.214 144.56Z" fill="#632CA6"/>
<path fill-rule="evenodd" clip-rule="evenodd" d="M579.958 144.56H542.581V58.5134H579.958C606.901 58.5134 620.362 72.075 620.362 99.188C620.362 129.429 606.901 144.56 579.958 144.56ZM558.561 130.708H577.549C595.428 130.708 604.392 120.205 604.392 99.178C604.392 81.2792 595.438 72.3248 577.549 72.3248H558.561V130.708Z" fill="#632CA6"/>
<path fill-rule="evenodd" clip-rule="evenodd" d="M631.186 101.656C631.186 72.4747 645.626 57.8938 674.488 57.8938C702.911 57.8938 717.102 72.4747 717.102 101.656C717.102 130.668 702.901 145.179 674.488 145.179C646.906 145.179 632.475 130.668 631.186 101.656ZM674.488 131.308C691.838 131.308 700.522 121.304 700.522 101.277C700.522 81.569 691.838 71.7052 674.488 71.7052C656.68 71.7052 647.775 81.569 647.775 101.277C647.775 121.304 656.68 131.308 674.488 131.308Z" fill="#632CA6"/>
<path fill-rule="evenodd" clip-rule="evenodd" d="M783.77 109.741V129.889C780.083 130.848 776.785 131.328 773.876 131.328C754.339 131.328 744.585 120.994 744.585 100.337C744.585 81.2592 754.938 71.7352 775.635 71.7352C784.28 71.7352 792.315 73.3442 799.75 76.5522V62.1012C792.315 59.3029 783.87 57.8938 774.426 57.8938C743.475 57.8938 727.995 72.035 727.995 100.337C727.995 130.219 743.206 145.179 773.637 145.179C784.1 145.179 792.795 143.66 799.75 140.602V95.5803H773.946L768.55 109.731L783.77 109.741Z" fill="#632CA6"/>
<path fill-rule="evenodd" clip-rule="evenodd" d="M158.771 144.07L141.911 132.957L127.85 156.442L111.5 151.665L97.0995 173.642L97.839 180.557L176.12 166.136L171.573 117.227L158.771 144.07ZM85.7666 122.993L98.3287 121.264C100.357 122.174 101.777 122.524 104.215 123.143C108.013 124.133 112.4 125.082 118.906 121.804C120.415 121.054 123.573 118.166 124.842 116.527L176.3 107.193L181.547 170.723L93.3918 186.614L85.7666 122.993ZM181.347 100.098L176.27 101.067L166.516 0.25L0.25 19.528L20.7372 185.754L40.195 182.926C38.646 180.707 36.2175 178.019 32.0901 174.581C26.3537 169.824 28.3824 161.729 31.7703 156.622C36.2375 147.998 59.2931 137.025 57.9839 123.233C57.5142 118.216 56.7147 111.69 52.0576 107.213C51.8877 109.072 52.1975 110.861 52.1975 110.861C52.1975 110.861 50.2887 108.422 49.3293 105.094C48.3799 103.815 47.6404 103.416 46.631 101.707C45.9115 103.675 46.0114 105.964 46.0114 105.964C46.0114 105.964 44.4524 102.266 44.1925 99.1482C43.2631 100.547 43.0333 103.196 43.0333 103.196C43.0333 103.196 41.0045 97.3693 41.4642 94.2313C40.5348 91.503 37.7865 86.0863 38.5661 73.774C43.6429 77.3318 54.8159 76.4824 59.1632 70.0664C60.6123 67.9377 61.6017 62.1413 58.4436 50.7185C56.4149 43.393 51.398 32.4799 49.4393 28.3324L49.2094 28.5023C50.2388 31.8403 52.3674 38.8259 53.1869 42.2238C55.6554 52.5073 56.315 56.0851 55.1557 60.8221C54.1663 64.9396 51.8078 67.6379 45.8115 70.656C39.8153 73.6841 31.8602 66.3187 31.3506 65.919C25.5242 61.2819 21.017 53.7066 20.5173 50.0289C19.9977 46.0014 22.8359 43.5829 24.275 40.295C22.2263 40.8846 19.9377 41.924 19.9377 41.924C19.9377 41.924 22.666 39.0957 26.0339 36.6572C27.433 35.7378 28.2425 35.1482 29.7116 33.929C27.5829 33.899 25.854 33.9489 25.854 33.9489C25.854 33.9489 29.4018 32.0301 33.0795 30.641C30.3912 30.5211 27.8128 30.621 27.8128 30.621C27.8128 30.621 35.7278 27.0832 41.9739 24.4849C46.2712 22.726 50.4686 23.2456 52.8271 26.6535C55.9252 31.1207 59.1732 33.5492 66.0689 35.0582C70.3062 33.1794 71.5854 32.22 76.9021 30.7709C81.5792 25.6241 85.2569 24.9546 85.2569 24.9546C85.2569 24.9546 83.438 26.6235 82.9483 29.2519C85.6067 27.1632 88.5148 25.4143 88.5148 25.4143C88.5148 25.4143 87.3855 26.8034 86.3362 29.012L86.576 29.3718C89.6741 27.513 93.3118 26.0539 93.3118 26.0539C93.3118 26.0539 92.2725 27.373 91.0533 29.072C93.3918 29.052 98.1288 29.1719 99.9577 29.3818C110.811 29.6216 113.06 17.789 117.227 16.31C122.444 14.4511 124.772 13.3218 133.657 22.0464C141.282 29.5417 147.238 42.9433 144.28 45.9514C141.802 48.4399 136.905 44.982 131.488 38.2163C128.62 34.6385 126.461 30.4111 125.442 25.0345C124.582 20.4973 121.254 17.869 121.254 17.869C121.254 17.869 123.183 22.1763 123.183 25.9739C123.183 28.0526 123.443 35.8078 126.771 40.1551C126.441 40.7947 126.291 43.3031 125.921 43.7828C122.054 39.1057 113.739 35.7578 112.39 34.7684C116.977 38.5261 127.52 47.1607 131.568 55.4355C135.396 63.2606 133.137 70.4361 135.076 72.295C135.625 72.8246 143.311 82.3987 144.79 87.2156C147.368 95.6004 144.94 104.415 141.572 109.881L132.148 111.351C130.768 110.971 129.839 110.771 128.6 110.061C129.279 108.852 130.639 105.844 130.648 105.224L130.119 104.295C127.181 108.452 122.274 112.49 118.186 114.808C112.84 117.837 106.683 117.367 102.676 116.128C91.2931 112.62 80.5298 104.925 77.9414 102.906C77.9414 102.906 77.8615 104.515 78.3512 104.885C81.2194 108.123 87.7953 113.979 94.1513 118.056L80.6098 119.545L87.0158 169.404C84.1775 169.814 83.7378 170.014 80.6298 170.454C77.8915 160.78 72.6547 154.454 66.9283 150.776C61.8815 147.528 54.9158 146.798 48.24 148.118L47.8103 148.617C52.4474 148.138 57.924 148.807 63.5404 152.365C69.057 155.853 73.5042 164.867 75.1432 170.294C77.2419 177.229 78.691 184.645 73.0445 192.51C69.027 198.096 57.3143 201.184 47.8403 194.509C50.3687 198.576 53.7865 201.904 58.3837 202.524C65.2194 203.453 71.7053 202.264 76.1626 197.687C79.9702 193.769 81.9989 185.574 81.4592 176.95L87.4855 176.08L89.6641 191.56L189.482 179.538L181.347 100.098ZM120.615 58.0439C120.335 58.6835 119.895 59.0932 120.555 61.1619L120.595 61.2819L120.695 61.5517L120.965 62.1713C122.154 64.5898 123.453 66.8784 125.622 68.0476C126.181 67.9577 126.771 67.8877 127.371 67.8577C129.409 67.7678 130.698 68.0876 131.518 68.5373C131.588 68.1276 131.608 67.5379 131.558 66.6585C131.398 63.5904 132.168 58.3737 126.271 55.6254C124.043 54.596 120.925 54.9058 119.885 56.205C120.075 56.225 120.245 56.265 120.375 56.315C121.964 56.8546 120.905 57.3943 120.615 58.0439ZM137.144 86.676C136.375 86.2463 132.757 86.4161 130.219 86.716C125.382 87.2856 120.155 88.9646 119.006 89.854C116.927 91.463 117.866 94.2712 119.406 95.4205C123.723 98.6385 127.5 100.807 131.488 100.277C133.936 99.9577 136.095 96.0801 137.624 92.5523C138.683 90.1338 138.683 87.5255 137.144 86.676ZM94.3012 61.8415C95.6704 60.5423 87.5055 58.8434 81.1694 63.1607C76.5023 66.3487 76.3524 73.1844 80.8196 77.052C81.2694 77.4318 81.6391 77.7116 81.9789 77.9314C83.2881 77.3118 84.7772 76.6922 86.4861 76.1426C89.3843 75.2032 91.7828 74.7135 93.7616 74.4636C94.711 73.4043 95.8103 71.5454 95.5304 68.1775C95.1607 63.5904 91.6928 64.32 94.3012 61.8415Z" fill="#632CA6"/>
</svg>
