<svg width="300" height="93" viewBox="0 0 300 93" fill="none" xmlns="http://www.w3.org/2000/svg">
<path d="M126.854 11.3857C126.854 17.6721 121.755 22.7713 115.469 22.7713C109.182 22.7713 104.083 17.6721 104.083 11.3857C104.083 5.09919 109.182 0 115.469 0C121.755 0 126.854 5.09919 126.854 11.3857Z" fill="#1978F0"/>
<path d="M1.54974 91.2706H17.0097C17.8721 91.2706 18.5595 90.5708 18.5595 89.7209V55.1515H50.3293C51.1917 55.1515 51.8791 54.4516 51.8791 53.6018V40.2664C51.8791 39.4041 51.1792 38.7167 50.3293 38.7167H18.5595V16.4703H50.3293C51.1917 16.4703 51.8791 15.7704 51.8791 14.9205V2.87253C51.8791 2.01017 51.1792 1.32275 50.3293 1.32275H1.54974C0.687376 1.32275 0 2.02267 0 2.87253V89.7209C0 90.5833 0.699874 91.2706 1.54974 91.2706Z" fill="#1978F0"/>
<path d="M70.3686 91.2706H85.9785C86.8409 91.2706 87.5283 90.5708 87.5283 89.7209V2.87253C87.5283 2.01017 86.8284 1.32275 85.9785 1.32275H70.3686C69.5062 1.32275 68.8188 2.02267 68.8188 2.87253V89.7209C68.8188 90.5833 69.5187 91.2706 70.3686 91.2706Z" fill="#1978F0"/>
<path d="M107.611 91.2695H123.221C124.084 91.2695 124.771 90.5696 124.771 89.7197V32.579C124.771 31.7167 124.071 31.0293 123.221 31.0293H107.611C106.749 31.0293 106.062 31.7292 106.062 32.579V89.7197C106.062 90.5821 106.761 91.2695 107.611 91.2695Z" fill="#1978F0"/>
<path d="M262.544 17.5703C241.859 17.5703 225.087 34.3426 225.087 55.0267C225.087 75.7109 241.859 92.4831 262.544 92.4831C283.228 92.4831 300 75.7109 300 55.0267C300 34.3426 283.228 17.5703 262.544 17.5703ZM262.544 75.1485C251.433 75.1485 242.422 66.1374 242.422 55.0267C242.422 43.916 251.433 34.905 262.544 34.905C273.654 34.905 282.665 43.916 282.665 55.0267C282.665 66.1374 273.654 75.1485 262.544 75.1485Z" fill="#1978F0"/>
<path d="M142.317 2.87253C142.317 2.01017 143.017 1.32275 143.867 1.32275H158.877C159.74 1.32275 160.427 2.02264 160.427 2.885V19.3948H172.562C173.425 19.3948 174.112 20.0947 174.112 20.9446V33.505C174.112 34.3674 173.412 35.0548 172.562 35.0548H160.427V63.8001C160.427 75.2608 162.839 76.698 169.938 76.698C172.113 76.698 173.937 76.4855 175.399 76.2106C176.349 76.0356 177.437 76.6855 177.462 77.6354C177.524 80.4099 177.437 86.1465 177.462 88.971C177.462 90.2083 176.637 91.2831 175.45 91.5956C172.875 92.2455 170.05 92.4705 164.064 92.4705C157.277 92.4705 151.541 90.2083 148.066 86.4339C144.142 82.2096 142.33 75.5607 142.33 65.8998V2.84751L142.317 2.87253Z" fill="#1978F0"/>
<path d="M186.285 2.86126C186.285 1.9989 186.985 1.31152 187.835 1.31152H202.845C203.708 1.31152 204.395 2.0114 204.395 2.86126V19.3711H216.53C217.393 19.3711 218.08 20.071 218.08 20.9208V33.4813C218.08 34.3436 217.38 35.031 216.53 35.031H204.395V63.7763C204.395 75.237 206.807 76.6743 213.906 76.6743C216.081 76.6743 217.905 76.4618 219.367 76.1869C220.317 76.0119 221.405 76.6618 221.43 77.6116C221.492 80.3861 221.405 86.1227 221.43 88.9473C221.43 90.1846 220.605 91.2594 219.417 91.5718C216.843 92.2217 214.018 92.4467 208.032 92.4467C201.245 92.4467 195.509 90.1846 192.034 86.4102C188.11 82.1859 186.298 75.537 186.298 65.876V2.82377L186.285 2.86126Z" fill="#1978F0"/>
</svg>
