<svg width="200" height="38" viewBox="0 0 200 38" fill="none" xmlns="http://www.w3.org/2000/svg">
<g clip-path="url(#clip0_2361_1044)">
<path d="M86.182 6.58344H88.8357V1.54724H86.1723C79.2185 1.54724 73.5818 7.18391 73.5818 14.1377V37.1396H78.6277V21.8325H88.8357V16.7963H78.6277V14.1377C78.6277 9.9635 82.0077 6.58344 86.182 6.58344Z" fill="#00C471"/>
<path d="M44.6478 11.7166V37.1397H39.6116V11.7166H44.6478Z" fill="#00C471"/>
<path d="M103.629 1.54724V37.1396H98.5933V1.54724H103.629Z" fill="#00C471"/>
<path d="M18.1594 0.820923C8.13055 0.820923 0 8.95148 0 18.9803C0 29.0091 8.13055 37.1397 18.1594 37.1397H36.3187V18.9803C36.3187 8.95148 28.1882 0.820923 18.1594 0.820923ZM3.63187 18.9803C3.63187 10.9708 10.1499 4.4528 18.1594 4.4528C26.1689 4.4528 32.6869 10.9708 32.6869 18.9803V31.3868L19.6993 18.1764L22.5806 9.91998C22.8566 9.13065 22.3917 8.30742 21.5007 7.99266C20.6533 7.69727 19.7187 8.07983 19.4572 8.83041L17.1134 15.547L12.9585 11.3243C12.3435 10.7093 11.3024 10.6609 10.6438 11.3243C10.0288 11.9393 9.98039 12.9804 10.6438 13.639L20.5903 23.7598H13.4331C12.5324 23.7598 11.777 24.5153 11.777 25.416C11.777 26.3603 12.5324 27.0721 13.4331 27.0721H23.7428C23.7767 27.0721 23.8057 27.0624 23.8396 27.0624L30.1833 33.5175H18.1642C10.1547 33.5175 3.63672 26.9995 3.63672 18.99L3.63187 18.9803Z" fill="#00C471"/>
<path d="M71.9111 24.3021C71.9111 17.2176 66.163 11.4744 59.0785 11.4744C51.9939 11.4744 46.2458 17.2176 46.2458 24.3021V37.1396H51.282V24.307C51.282 20.002 54.7735 16.5106 59.0785 16.5106C63.3834 16.5106 66.8749 20.002 66.8749 24.307V37.1396H71.9111V24.3021Z" fill="#00C471"/>
<path d="M200 24.3021C200 17.2176 194.252 11.4744 187.167 11.4744C180.083 11.4744 174.335 17.2176 174.335 24.3021V37.1396H179.371V24.307C179.371 20.002 182.862 16.5106 187.167 16.5106C191.472 16.5106 194.964 20.002 194.964 24.307V37.1396H200V24.3021Z" fill="#00C471"/>
<path d="M170.572 11.4744C163.497 11.4889 157.764 17.2273 157.764 24.3021V37.1396H162.8V24.307C162.8 20.002 166.291 16.5106 170.596 16.5106H172.993V11.4744H170.572Z" fill="#00C471"/>
<path d="M124.98 28.2537C124.646 28.8445 124.229 29.4062 123.726 29.9098C121.324 32.3117 117.74 32.8008 114.849 31.3868L121.484 24.7526L128.839 17.3968C128.379 16.7043 127.847 16.0506 127.237 15.4404C122.273 10.4769 114.225 10.4769 109.261 15.4404C104.298 20.404 104.298 28.4522 109.261 33.4158C114.225 38.3794 122.273 38.3794 127.237 33.4158C127.731 32.9219 128.176 32.394 128.573 31.842L124.985 28.2537H124.98ZM112.767 18.9513C115.169 16.5494 118.753 16.0603 121.644 17.4743L111.29 27.8276C109.881 24.9366 110.365 21.3531 112.767 18.9513Z" fill="#00C471"/>
<path d="M143.101 10.9901C135.88 10.9901 130.026 16.8447 130.026 24.0649C130.026 31.285 135.88 37.1396 143.101 37.1396H156.175V24.0649C156.175 16.8447 150.321 10.9901 143.101 10.9901ZM151.236 32.2003H143.101C138.607 32.2003 134.965 28.5587 134.965 24.0649C134.965 19.571 138.607 15.9295 143.101 15.9295C147.594 15.9295 151.236 19.571 151.236 24.0649V32.2003Z" fill="#00C471"/>
</g>
<defs>
<clipPath id="clip0_2361_1044">
<rect width="200" height="36.3187" fill="white" transform="translate(0 0.820923)"/>
</clipPath>
</defs>
</svg>
