<svg width="402" height="80" viewBox="0 0 402 80" fill="none" xmlns="http://www.w3.org/2000/svg">
<g clip-path="url(#clip0_2361_1009)">
<mask id="mask0_2361_1009" style="mask-type:luminance" maskUnits="userSpaceOnUse" x="1" y="1" width="401" height="79">
<path d="M401.306 1.41174H1.30566V79.6437H401.306V1.41174Z" fill="white"/>
</mask>
<g mask="url(#mask0_2361_1009)">
<path d="M314.347 28.9801H304.874V62.3535H314.347V28.9801Z" fill="black"/>
<path d="M314.347 17.9801H304.874V25.3594H314.347V17.9801Z" fill="black"/>
<path d="M107.749 17.9801H97.8477V62.3527H128.083V53.8455H107.749V17.9801Z" fill="black"/>
<path d="M147.651 26.2028C137.112 26.2028 128.77 34.3555 128.77 44.6296C128.77 54.9038 137.112 63.0779 147.651 63.0779C158.191 63.0779 166.603 54.9252 166.603 44.6457C166.603 34.3663 158.255 26.2028 147.651 26.2028ZM147.651 54.27C142.347 54.27 138.387 50.2312 138.387 44.6028C138.387 38.9743 142.347 34.9678 147.651 34.9678C152.956 34.9678 156.916 39.0763 156.916 44.6028C156.916 50.1292 152.956 54.27 147.651 54.27Z" fill="black"/>
<path d="M206.334 54.8387C204.635 54.8387 203.151 53.8451 203.151 50.7999V36.6267H212.185V28.9789H203.151V19.36H193.678V28.9789H181.237V19.36H171.763V28.9789H166.604V36.6267H171.763V50.9396C171.763 58.9473 175.584 63.0612 182.651 63.0612C185.842 63.0675 188.965 62.1337 191.631 60.3759L188.952 53.3617C187.611 54.2707 186.042 54.786 184.424 54.8494C182.726 54.8494 181.242 53.8558 181.242 50.8107V36.6267H193.683V50.9396C193.683 58.9473 197.498 63.0612 204.571 63.0612C207.762 63.0665 210.885 62.1328 213.551 60.3759L210.872 53.3617C209.527 54.2701 207.955 54.7818 206.334 54.8387Z" fill="black"/>
<path d="M266.226 42.1326C264.78 32.17 256.116 25.1237 246.594 26.5147C244.2 26.8423 241.895 27.6459 239.814 28.8783C237.734 30.1107 235.919 31.747 234.478 33.6914C233.037 35.6358 231.997 37.8491 231.421 40.2015C230.844 42.5539 230.742 44.998 231.12 47.3905C232.797 58.9643 242.726 64.3243 252.938 62.8312C257.563 62.1795 261.896 60.1793 265.396 57.0792L260.916 50.8546C258.359 53.0698 255.219 54.4983 251.872 54.9686C247.253 55.6399 242.929 53.8944 241.107 49.2327L266.505 45.5269C266.475 44.3912 266.382 43.258 266.226 42.1326ZM240.057 43.0081C240.325 38.4591 243.401 35.0004 247.457 34.415C249.518 34.0937 251.625 34.5366 253.383 35.6607C255.142 36.7848 256.432 38.5129 257.01 40.5214L240.057 43.0081Z" fill="black"/>
<path d="M369.064 42.1326C367.617 32.17 358.948 25.1237 349.432 26.5147C347.037 26.8416 344.732 27.6448 342.651 28.8769C340.57 30.1091 338.756 31.7455 337.314 33.6901C335.873 35.6346 334.833 37.8482 334.257 40.2009C333.681 42.5536 333.579 44.9979 333.958 47.3905C335.635 58.9643 345.558 64.3243 355.776 62.8312C360.4 62.1794 364.73 60.1791 368.228 57.0792L363.754 50.8546C361.195 53.07 358.053 54.4984 354.704 54.9686C350.086 55.6399 345.762 53.8944 343.94 49.2327L369.343 45.5269C369.309 44.3914 369.216 43.2584 369.064 42.1326ZM342.895 43.0081C343.163 38.4591 346.233 35.0004 350.295 34.415C352.353 34.0922 354.458 34.5349 356.214 35.6596C357.97 36.7842 359.254 38.5133 359.827 40.5214L342.895 43.0081Z" fill="black"/>
<path d="M329.902 17.9801H320.429V62.3473H329.902V17.9801Z" fill="black"/>
<path d="M388.681 40.1665C385.429 39.4576 382.46 38.8184 382.46 36.8367C382.46 35.349 384.512 34.3554 386.704 34.3554C390.126 34.4098 393.49 35.2592 396.53 36.8367L399.713 29.7473C395.759 27.3231 391.192 26.0925 386.559 26.2027C379.915 26.2027 372.842 30.032 372.842 37.2609C372.842 44.0656 378.57 46.3911 385.573 48.244C388.611 49.0979 391.655 49.592 391.655 51.7188C391.655 53.8456 388.049 54.6942 385.852 54.6942C381.851 54.7723 377.949 53.442 374.825 50.9347L371.428 58.2442C373.41 60.0863 378.286 63.0778 385.852 63.0778C392.431 63.0778 401.267 60.1722 401.267 51.4503C401.267 44.2052 394.714 41.5951 388.681 40.1665Z" fill="black"/>
<path d="M226.834 28.9801H217.36V62.3535H226.834V28.9801Z" fill="black"/>
<path d="M226.834 17.9801H217.36V25.3594H226.834V17.9801Z" fill="black"/>
<path d="M270.261 62.3527H280.141V44.2212H296.896V35.8054H280.141V26.4711H300.497V17.9801H270.261V62.3527Z" fill="black"/>
<path d="M59.5965 1.41174H21.0503C10.1457 1.41174 1.30566 10.2725 1.30566 21.2027V59.8394C1.30566 70.7696 10.1457 79.6303 21.0503 79.6303H59.5965C70.5011 79.6303 79.3411 70.7696 79.3411 59.8394V21.2027C79.3411 10.2725 70.5011 1.41174 59.5965 1.41174Z" fill="#00DDB3"/>
<path d="M60.6139 18.9303C47.1811 18.9303 42.2034 28.5438 38.2009 36.2669L35.5862 41.2079C31.3479 49.3982 28.1814 54.3768 20.021 54.3768C19.5144 54.3768 19.0127 54.4768 18.5447 54.6711C18.0766 54.8655 17.6513 55.1503 17.293 55.5094C16.9348 55.8684 16.6505 56.2947 16.4566 56.7639C16.2628 57.233 16.1631 57.7359 16.1631 58.2437C16.1645 59.2688 16.5714 60.2515 17.2946 60.9764C18.0178 61.7013 18.9983 62.1092 20.021 62.1106C33.4591 62.1106 38.4367 52.497 42.4392 44.774L45.0487 39.833C49.2923 31.6427 52.4588 26.6641 60.6139 26.6641C61.1209 26.6648 61.6231 26.5653 62.0918 26.3712C62.5605 26.1772 62.9864 25.8925 63.3452 25.5334C63.704 25.1742 63.9888 24.7477 64.183 24.2782C64.3772 23.8087 64.477 23.3054 64.477 22.7972C64.4756 21.7711 64.068 20.7876 63.3437 20.0625C62.6193 19.3375 61.6375 18.9303 60.6139 18.9303Z" fill="white"/>
</g>
</g>
<defs>
<clipPath id="clip0_2361_1009">
<rect width="401" height="79" fill="white" transform="translate(0.5 0.820923)"/>
</clipPath>
</defs>
</svg>
