<svg width="94" height="93" viewBox="0 0 94 93" fill="none" xmlns="http://www.w3.org/2000/svg">
<mask id="mask0_2455_849" style="mask-type:luminance" maskUnits="userSpaceOnUse" x="0" y="0" width="94" height="93">
<path d="M93.8562 0.908081H0.448364V92.0919H93.8562V0.908081Z" fill="white"/>
</mask>
<g mask="url(#mask0_2455_849)">
<path d="M47.1523 92.0919C72.9462 92.0919 93.8562 71.6797 93.8562 46.5C93.8562 21.3203 72.9462 0.908081 47.1523 0.908081C21.3584 0.908081 0.448364 21.3203 0.448364 46.5C0.448364 71.6797 21.3584 92.0919 47.1523 92.0919Z" fill="#3B524D"/>
<path d="M56.061 28.1721C56.3879 28.6622 56.7733 29.1181 57.2053 29.5512C57.7657 29.6994 58.3262 29.7792 58.8866 29.8134C60.4395 29.9843 62.0158 29.8134 63.4286 29.3005C65.3551 28.5938 66.8963 27.34 67.8888 25.6531C68.6127 24.4221 69.0097 23.0202 69.0214 21.584C69.033 20.1935 68.6944 18.7801 68.0523 17.4921C67.9238 17.2414 67.7487 16.9564 67.5619 16.6487C67.3167 16.2498 66.7796 15.4177 66.6278 15.0416C66.3242 14.3007 66.4643 13.8904 66.4643 13.8904C66.4643 13.8904 66.1607 14.2209 65.3551 14.3349C64.9348 14.3919 63.9306 14.3577 63.4519 14.3463C63.09 14.3463 62.7514 14.3349 62.4595 14.3577C60.9883 14.4603 59.5638 14.882 58.3378 15.5887C57.0768 16.3182 56.026 17.3554 55.3021 18.575C54.3096 20.2619 53.9593 22.1995 54.298 24.1714C54.5548 25.5847 55.1736 26.9753 56.061 28.1721Z" fill="#68E7BE"/>
<path d="M85.7648 46.5228C85.7181 46.5114 85.3211 46.4316 84.819 45.8047C84.5505 45.4742 84.0834 44.6079 83.8499 44.209C83.6748 43.9012 83.4996 43.6163 83.3479 43.3769C82.5189 42.1801 81.433 41.1885 80.1953 40.5046C78.9227 39.798 77.4748 39.4332 76.027 39.4332C74.0304 39.4332 72.1389 40.1057 70.5627 41.3823C69.4184 42.3055 68.496 43.5137 67.8655 44.8815C67.597 45.3944 67.3868 45.9529 67.2233 46.5228C67.3868 47.0927 67.597 47.6398 67.8655 48.1641C68.4843 49.5318 69.4184 50.74 70.5627 51.6633C72.1506 52.9398 74.0421 53.6123 76.027 53.6123C77.4748 53.6123 78.9227 53.2362 80.1953 52.5295C81.433 51.8456 82.5189 50.854 83.3479 49.6572C83.5113 49.4179 83.6748 49.1329 83.8499 48.8252C84.0834 48.4262 84.5505 47.56 84.8074 47.2294C85.3328 46.614 85.7181 46.5342 85.7648 46.5228C85.7648 46.5342 85.7648 46.5342 85.7648 46.5228Z" fill="#68E7BE"/>
<path d="M63.4402 63.6995C62.0157 63.1866 60.4395 63.0156 58.8866 63.1866C58.3261 63.2207 57.7657 63.3119 57.2169 63.4601C56.7849 63.8818 56.4113 64.3377 56.0843 64.8165C55.1853 66.0246 54.5665 67.4266 54.3213 68.8513C53.9827 70.8232 54.3329 72.7609 55.3371 74.4478C56.061 75.6673 57.1118 76.7046 58.3845 77.434C59.6105 78.1407 61.035 78.5624 62.5061 78.6536C62.798 78.6764 63.1366 78.665 63.4986 78.665C63.9773 78.665 64.9698 78.6194 65.4018 78.6764C66.2074 78.7904 66.476 79.0753 66.511 79.1095C66.4993 79.0639 66.3709 78.6992 66.6745 77.9583C66.8263 77.5708 67.3633 76.7387 67.6085 76.3398C67.7954 76.0321 67.9705 75.7471 68.0873 75.4964C68.7294 74.197 69.068 72.7837 69.0564 71.3931C69.0447 69.957 68.6477 68.555 67.9238 67.3354C66.9197 65.6599 65.3668 64.4061 63.4402 63.6995Z" fill="#68E7BE"/>
<path d="M38.2669 64.8282C37.9399 64.3495 37.5663 63.905 37.1343 63.4832C36.5855 63.3465 36.0251 63.2553 35.4763 63.2211C33.9117 63.0387 32.3355 63.2211 30.911 63.7454C28.9845 64.4521 27.4432 65.7173 26.4508 67.4042C25.7269 68.6351 25.3416 70.0371 25.3299 71.4732C25.3182 72.8638 25.6568 74.2771 26.3107 75.5651C26.4391 75.8159 26.6142 76.1008 26.8011 76.4086C27.0462 76.8075 27.5833 77.6395 27.7351 78.0157C28.0387 78.7565 27.9219 79.1213 27.8986 79.1669C27.9336 79.1327 28.1905 78.8477 28.9961 78.7337C29.4165 78.6768 30.4206 78.7109 30.8993 78.7109C31.2613 78.7109 31.5999 78.7109 31.8918 78.6995C33.363 78.597 34.7874 78.1752 36.0134 77.4686C37.2744 76.7391 38.3252 75.7019 39.0492 74.4823C40.0416 72.7954 40.3919 70.8577 40.0416 68.8859C39.7964 67.4269 39.1776 66.0364 38.2669 64.8282Z" fill="#68E7BE"/>
<path d="M30.8877 29.3119C32.3121 29.8248 33.8884 30.0072 35.4413 29.8248C36.0018 29.7906 36.5622 29.6994 37.1226 29.5626C37.5547 29.1409 37.9283 28.685 38.2435 28.2063C39.1543 26.9981 39.7614 25.5961 40.0066 24.1714C40.3452 22.1995 39.9949 20.2619 39.0025 18.575C38.2786 17.3554 37.2277 16.3182 35.955 15.5887C34.7291 14.882 33.3046 14.4603 31.8334 14.3691C31.5415 14.3463 31.2029 14.3577 30.841 14.3577C30.3623 14.3577 29.3698 14.4033 28.9378 14.3463C28.1321 14.2324 27.8636 13.9474 27.8286 13.9132C27.8402 13.9588 27.9687 14.3235 27.6651 15.0644C27.5133 15.4519 26.9762 16.2726 26.731 16.6829C26.5442 16.9907 26.3691 17.2756 26.2523 17.5264C25.5985 18.8257 25.2715 20.2391 25.2832 21.6182C25.2949 23.0544 25.6919 24.4563 26.4158 25.6759C27.4199 27.3514 28.9611 28.6166 30.8877 29.3119Z" fill="#68E7BE"/>
<path d="M27.0696 46.5228C26.9061 45.9529 26.6959 45.3944 26.4274 44.8815C25.8086 43.5137 24.8745 42.3055 23.7302 41.3823C22.1423 40.1057 20.2508 39.4332 18.2659 39.4332C16.8181 39.4332 15.3702 39.8094 14.0976 40.516C12.8599 41.1999 11.774 42.1915 10.945 43.3883C10.7816 43.6277 10.6181 43.9126 10.443 44.2204C10.2094 44.6193 9.7424 45.4856 9.48553 45.8161C8.98346 46.443 8.59816 46.5228 8.55145 46.5342C8.59816 46.5456 8.98346 46.6254 9.48553 47.2522C9.75408 47.5828 10.2211 48.449 10.4546 48.848C10.6298 49.1557 10.8049 49.4407 10.9567 49.68C11.7857 50.8768 12.8716 51.8684 14.1092 52.5523C15.3819 53.259 16.8297 53.6237 18.2776 53.6237C20.2741 53.6237 22.1657 52.9512 23.7419 51.6747C24.8862 50.7514 25.8086 49.5432 26.4274 48.1755C26.6959 47.6512 26.9061 47.1041 27.0696 46.5228Z" fill="#68E7BE"/>
<path d="M62.0859 21.299C59.4588 21.4699 57.217 22.5869 56.0377 24.5702C54.8585 26.5534 54.9986 29.0154 56.1545 31.3178C58.7816 31.1468 61.0234 30.0298 62.191 28.0466C63.3819 26.0519 63.2535 23.6013 62.0859 21.299Z" fill="#4B716B"/>
<path d="M76.9961 46.5342C75.5366 44.4028 73.4233 43.0579 71.0764 43.0579C68.7295 43.0579 66.6162 44.4028 65.1567 46.5342C66.6162 48.6657 68.7295 50.0106 71.0764 50.0106C73.4233 49.9992 75.5366 48.6657 76.9961 46.5342Z" fill="#4B716B"/>
<path d="M62.1092 71.7124C63.2651 69.41 63.3936 66.948 62.2143 64.9648C61.035 62.9815 58.7932 61.8645 56.1661 61.705C55.0102 64.0073 54.8818 66.4693 56.0611 68.4526C57.2403 70.4358 59.4938 71.5528 62.1092 71.7124Z" fill="#4B716B"/>
<path d="M32.2771 71.7467C34.9042 71.5757 37.1459 70.4473 38.3135 68.464C39.4811 66.4808 39.3527 64.0188 38.1851 61.7164C35.558 61.8874 33.3162 63.0044 32.1486 64.999C30.9694 66.9937 31.1095 69.4443 32.2771 71.7467Z" fill="#4B716B"/>
<path d="M17.2968 46.5343C18.7563 48.6657 20.8696 50.0107 23.2282 50.0107C25.575 50.0107 27.6884 48.6657 29.1479 46.5343C27.6884 44.4028 25.575 43.0579 23.2282 43.0693C20.8696 43.0579 18.7679 44.3915 17.2968 46.5343Z" fill="#4B716B"/>
<path d="M32.2304 21.3103C31.0745 23.6127 30.9344 26.0747 32.1137 28.0579C33.2929 30.0412 35.5347 31.1582 38.1618 31.3291C39.3177 29.0267 39.4579 26.5762 38.2786 24.5815C37.0993 22.5869 34.8458 21.4699 32.2304 21.3103Z" fill="#4B716B"/>
<path d="M82.5656 61.7846C82.5656 61.1691 82.5772 60.5764 82.5422 60.0863C82.3671 57.5673 81.5965 55.1282 80.3238 53.0309C79.0161 50.8653 77.1479 49.0644 74.9412 47.8221C73.9254 47.2522 72.8628 46.8076 71.7536 46.4885C72.8512 46.1694 73.9254 45.7248 74.9412 45.1549C77.1479 43.9126 79.0044 42.1117 80.3238 39.9461C81.5965 37.8488 82.3554 35.4097 82.5422 32.8907C82.5772 32.4006 82.5772 31.8193 82.5656 31.1924C82.5539 30.3832 82.5072 28.6735 82.6006 27.944C82.7057 27.0549 83.2078 26.1659 83.2078 26.1659C83.2078 26.1659 82.1686 26.1431 81.3279 25.7898C80.639 25.5048 79.1445 24.6044 78.4323 24.194C77.8835 23.8749 77.3698 23.5786 76.9144 23.3734C74.5909 22.2678 72.0455 21.6979 69.5469 21.7207C66.9665 21.7435 64.4445 22.416 62.2377 23.6583C61.2219 24.2282 60.2878 24.9121 59.4588 25.6872C59.7274 24.593 59.8675 23.4646 59.8675 22.3248C59.8675 19.84 59.2019 17.3667 57.9409 15.1782C56.715 13.0582 54.9402 11.189 52.7918 9.77564C52.3715 9.50209 51.8577 9.20574 51.2973 8.9094C50.5734 8.51047 49.0322 7.68981 48.4367 7.25669C47.7011 6.72098 47.164 5.85474 47.164 5.85474C47.164 5.85474 46.6269 6.72098 45.8913 7.25669C45.2958 7.68981 43.7546 8.51047 43.0307 8.9094C42.4819 9.21714 41.9565 9.50209 41.5362 9.77564C39.3878 11.189 37.613 13.0582 36.3871 15.1782C35.1261 17.3667 34.4605 19.84 34.4605 22.3248C34.4605 23.476 34.6006 24.593 34.8692 25.6872C34.0285 24.9121 33.1061 24.2396 32.0903 23.6583C29.8836 22.416 27.3615 21.7435 24.7811 21.7207C22.2942 21.6979 19.7488 22.2678 17.4136 23.3734C16.9582 23.59 16.4445 23.8863 15.8957 24.194C15.1835 24.6044 13.689 25.5048 13.0001 25.7898C12.1594 26.1431 11.1202 26.1659 11.1202 26.1659C11.1202 26.1659 11.6106 27.0549 11.7274 27.944C11.8208 28.6621 11.7741 30.3832 11.7624 31.1924C11.7624 31.8079 11.7507 32.4006 11.7858 32.8907C11.9609 35.4097 12.7315 37.8488 14.0042 39.9461C15.3119 42.1117 17.1801 43.9126 19.3868 45.1549C20.4027 45.7248 21.4652 46.1694 22.5744 46.4885C21.4768 46.8076 20.4027 47.2522 19.3868 47.8221C17.1801 49.0644 15.3236 50.8653 14.0042 53.0309C12.7315 55.1282 11.9726 57.5673 11.7858 60.0863C11.7507 60.5764 11.7507 61.1577 11.7624 61.7846C11.7741 62.5938 11.8208 64.3035 11.7274 65.033C11.6223 65.9221 11.1202 66.8111 11.1202 66.8111C11.1202 66.8111 12.1594 66.8339 13.0001 67.1872C13.689 67.4722 15.1835 68.3726 15.8957 68.783C16.4445 69.1021 16.9582 69.3984 17.4136 69.6036C19.7371 70.7092 22.2825 71.2791 24.7811 71.2563C27.3615 71.2335 29.8836 70.561 32.0903 69.3187C33.1061 68.7488 34.0402 68.0649 34.8692 67.2898C34.6006 68.384 34.4605 69.5124 34.4605 70.6522C34.4605 73.137 35.1261 75.6103 36.3871 77.7988C37.613 79.9188 39.3878 81.788 41.5362 83.2014C41.9565 83.475 42.4703 83.7713 43.0307 84.0676C43.7546 84.4666 45.2958 85.2872 45.8913 85.7204C46.6269 86.2561 47.164 87.1223 47.164 87.1223C47.164 87.1223 47.7011 86.2561 48.4367 85.7204C49.0322 85.2872 50.5734 84.4666 51.2973 84.0676C51.8461 83.7599 52.3715 83.475 52.7918 83.2014C54.9402 81.788 56.715 79.9188 57.9409 77.7988C59.2019 75.6103 59.8675 73.137 59.8675 70.6522C59.8675 69.501 59.7274 68.384 59.4588 67.2898C60.2995 68.0649 61.2219 68.7374 62.2377 69.3187C64.4445 70.561 66.9665 71.2335 69.5469 71.2563C72.0338 71.2791 74.5792 70.7092 76.9144 69.6036C77.3698 69.387 77.8835 69.0907 78.4323 68.783C79.1445 68.3726 80.639 67.4722 81.3279 67.1872C82.1686 66.8339 83.2078 66.8111 83.2078 66.8111C83.2078 66.8111 82.7174 65.9221 82.6006 65.033C82.5072 64.3149 82.5539 62.5938 82.5656 61.7846Z" fill="white"/>
<path d="M35.7098 70.6636C35.7098 64.1325 40.532 58.6159 47.1406 56.8606C53.7492 58.6159 58.5713 64.1325 58.5713 70.6636C58.5713 75.4393 55.991 79.6794 52.0094 82.3009C50.5616 83.2583 47.3858 84.5805 47.1406 85.9255C46.8954 84.5805 43.7195 83.2469 42.2717 82.3009C38.3018 79.6794 35.7098 75.4507 35.7098 70.6636Z" fill="#FFA798"/>
<path d="M19.9823 48.9162C25.7736 45.6564 33.0827 46.9672 37.9399 51.6745C39.6797 58.1372 37.2044 64.976 31.4131 68.2358C27.1747 70.6294 22.119 70.561 17.8106 68.5094C16.246 67.7685 13.4788 65.7396 12.1594 66.207C12.1594 66.207 12.1477 66.207 12.1477 66.2184L12.1594 66.207C13.2336 65.3179 12.8249 61.9783 12.9417 60.28C13.2803 55.6068 15.7439 51.3098 19.9823 48.9162Z" fill="#FFA798"/>
<path d="M31.4247 24.7411C37.216 28.001 39.6913 34.8398 37.9516 41.3024C33.0827 46.0098 25.7852 47.3319 19.9939 44.0607C15.7556 41.6671 13.2919 37.3701 12.9533 32.6969C12.8366 30.9986 13.2452 27.6476 12.171 26.77L12.1594 26.7586C12.1594 26.7586 12.171 26.7586 12.171 26.77C13.4904 27.2373 16.2576 25.2085 17.8222 24.4676C22.1306 22.416 27.1863 22.3476 31.4247 24.7411Z" fill="#FFA798"/>
<path d="M58.583 22.325C58.583 28.856 53.7608 34.3726 47.1522 36.1279C40.5436 34.3726 35.7214 28.856 35.7214 22.325C35.7214 17.5492 38.3018 13.3092 42.2833 10.6877C43.7312 9.73024 46.907 8.40807 47.1522 7.06311C47.3974 8.40807 50.5733 9.74164 52.0211 10.6877C56.0026 13.3092 58.583 17.5378 58.583 22.325Z" fill="#FFA798"/>
<path d="M74.3106 44.0722C68.5193 47.332 61.2101 46.0213 56.3529 41.3139C54.6132 34.8512 57.0885 28.0124 62.8798 24.7526C67.1182 22.359 72.1739 22.4274 76.4823 24.4791C78.0469 25.2199 80.8141 27.2488 82.1335 26.7815C82.1335 26.7815 82.1452 26.7815 82.1452 26.7701L82.1335 26.7815C81.0593 27.6705 81.468 31.0101 81.3512 32.7084C81.0126 37.3816 78.549 41.69 74.3106 44.0722Z" fill="#FFA798"/>
<path d="M62.8798 68.2473C57.0885 64.9875 54.6132 58.1487 56.3529 51.686C61.2218 46.9787 68.5193 45.6565 74.3106 48.9277C78.549 51.3213 81.0126 55.6183 81.3512 60.2915C81.468 61.9898 81.0593 65.3408 82.1335 66.2184L82.1452 66.2298C82.1452 66.2298 82.1335 66.2298 82.1335 66.2184C80.8141 65.7511 78.0469 67.78 76.4823 68.5208C72.1622 70.5725 67.1182 70.6409 62.8798 68.2473Z" fill="#FFA798"/>
<path d="M41.8981 63.597C41.8981 59.3683 43.9181 55.5614 47.1406 52.9285C50.3632 55.5614 52.3832 59.3683 52.3832 63.597C52.3832 67.8256 50.3632 71.6326 47.1406 74.2655C43.9181 71.6326 41.8981 67.837 41.8981 63.597Z" fill="white"/>
<path d="M29.3464 50.6031C33.0944 48.4831 37.4846 48.3007 41.431 49.7027C40.7071 53.7376 38.3486 57.3507 34.5889 59.4707C30.8409 61.5908 26.4508 61.7731 22.5043 60.3712C23.2282 56.3363 25.5867 52.7231 29.3464 50.6031Z" fill="white"/>
<path d="M34.6006 33.4951C38.3486 35.6151 40.7188 39.2283 41.4427 43.2632C37.4962 44.6651 33.106 44.4828 29.3581 42.3627C25.6101 40.2427 23.2398 36.6295 22.5159 32.5947C26.4624 31.1927 30.8409 31.3865 34.6006 33.4951Z" fill="white"/>
<path d="M52.4065 29.3917C52.4065 33.6203 50.3865 37.4272 47.164 40.0602C43.9414 37.4272 41.9214 33.6203 41.9214 29.3917C41.9214 25.163 43.9414 21.3561 47.164 18.7231C50.3749 21.3561 52.4065 25.1516 52.4065 29.3917Z" fill="white"/>
<path d="M64.9582 42.3852C61.2102 44.5052 56.82 44.6876 52.8735 43.2856C53.5974 39.2507 55.956 35.6376 59.7157 33.5175C63.4637 31.3975 67.8538 31.2152 71.8003 32.6171C71.0647 36.652 68.7062 40.2651 64.9582 42.3852Z" fill="white"/>
<path d="M59.7039 59.4938C55.956 57.3738 53.5857 53.7606 52.8618 49.7257C56.8083 48.3238 61.1985 48.5062 64.9465 50.6262C68.6945 52.7462 71.0647 56.3594 71.7886 60.3943C67.8421 61.7962 63.4519 61.6024 59.7039 59.4938Z" fill="white"/>
<path d="M35.6747 70.6865C35.6747 75.4622 38.2668 79.7023 42.2483 82.3124C43.6961 83.2585 46.8954 84.5806 47.1522 85.9256C47.4091 84.5806 50.6083 83.2584 52.0445 82.301C56.0143 79.6795 58.5947 75.4394 58.5947 70.6637C58.5947 69.0452 58.2911 67.4836 57.7423 66.0247C58.7231 72.8521 54.6365 77.89 49.7793 78.7221C50.1646 74.7328 49.4758 67.2557 47.8411 63.3804C48.0513 70.2534 47.1639 74.6758 47.1406 74.8353C47.1055 74.6872 46.2182 70.2648 46.4166 63.3918C44.782 67.2671 44.1165 74.7442 44.5135 78.7335C39.6563 77.9128 35.558 72.8863 36.5271 66.0589C35.9666 67.5064 35.6747 69.068 35.6747 70.6865Z" fill="#DB2754"/>
<path d="M19.9472 48.8936C15.7089 51.2872 13.2452 55.5956 12.9183 60.2688C12.8015 61.9671 13.2219 65.3295 12.1594 66.2185C13.4787 65.7626 16.2576 67.8029 17.8222 68.5437C22.1307 70.5954 27.1863 70.6524 31.4247 68.2588C32.8609 67.4495 34.0985 66.4123 35.1143 65.2155C29.5449 69.4556 23.0414 68.5209 19.8772 64.8394C23.6135 63.1639 29.9069 58.8555 32.5106 55.5272C26.5208 59.1404 22.154 60.6107 22.0022 60.6563C22.119 60.5538 25.5984 57.5903 31.7984 54.3191C27.5483 54.8776 20.5777 58.0462 17.2267 60.3828C15.5337 55.8692 17.939 49.8852 24.4775 47.2865C22.9246 47.5487 21.3834 48.073 19.9472 48.8936Z" fill="#DB2754"/>
<path d="M31.4247 24.6956C27.1863 22.3134 22.1307 22.3818 17.8222 24.4449C16.2576 25.1971 13.4904 27.2374 12.1594 26.7815C13.2219 27.6705 12.8015 31.0329 12.93 32.7312C13.2686 37.4044 15.7439 41.7014 19.9823 44.0836C21.4184 44.8928 22.9596 45.4172 24.5242 45.6793C17.974 43.1034 15.5571 37.1308 17.2384 32.6058C20.5894 34.931 27.56 38.0883 31.8217 38.6354C25.6218 35.3755 22.1306 32.4121 22.0139 32.3209C22.1657 32.3665 26.5325 33.8254 32.5339 37.4272C29.9069 34.1104 23.6135 29.8019 19.8772 28.1378C23.0414 24.4449 29.5449 23.4874 35.1143 27.7275C34.0985 26.5421 32.8609 25.5049 31.4247 24.6956Z" fill="#DB2754"/>
<path d="M58.6297 22.302C58.6297 17.5262 56.0377 13.2862 52.0562 10.676C50.6083 9.72999 47.4091 8.40783 47.1522 7.06287C46.8954 8.40783 43.6961 9.72999 42.26 10.6874C38.2902 13.309 35.7098 17.549 35.7098 22.3248C35.7098 23.9433 36.0134 25.5048 36.5621 26.9637C35.5813 20.1364 39.6679 15.0984 44.5251 14.2664C44.1398 18.2557 44.8287 25.7328 46.4634 29.6081C46.2532 22.7351 47.1406 18.3127 47.1639 18.1531C47.1989 18.3013 48.0863 22.7237 47.8878 29.5967C49.5225 25.7214 50.188 18.2443 49.791 14.255C54.6482 15.0756 58.7465 20.1022 57.7774 26.9295C58.3262 25.482 58.6297 23.9205 58.6297 22.302Z" fill="#DB2754"/>
<path d="M74.3456 44.0951C78.584 41.7016 81.0476 37.3931 81.3745 32.7199C81.4913 31.0216 81.0709 27.6592 82.1334 26.7702C80.8141 27.2261 78.0352 25.1859 76.4706 24.445C72.1622 22.3934 67.1065 22.3364 62.8681 24.73C61.4319 25.5392 60.1943 26.5764 59.1785 27.7732C64.7479 23.5332 71.2514 24.4678 74.4156 28.1494C70.6793 29.8249 64.386 34.1333 61.7822 37.4615C67.772 33.8483 72.1388 32.378 72.2906 32.3324C72.1738 32.435 68.6944 35.3985 62.4944 38.6697C66.7445 38.1112 73.7151 34.9426 77.0661 32.606C78.7591 37.1196 76.3538 43.1035 69.8153 45.7022C71.3799 45.4401 72.9094 44.9158 74.3456 44.0951Z" fill="#DB2754"/>
<path d="M62.8681 68.293C67.1065 70.6752 72.1622 70.6068 76.4706 68.5438C78.0352 67.7915 80.8024 65.7513 82.1334 66.2072C81.0709 65.3181 81.4913 61.9557 81.3628 60.2574C81.0242 55.5843 78.5489 51.2872 74.3105 48.905C72.8744 48.0958 71.3332 47.5715 69.7686 47.3093C76.3188 49.8853 78.7357 55.8578 77.0544 60.3828C73.7034 58.0576 66.7328 54.9004 62.4711 54.3533C68.671 57.6131 72.1622 60.5766 72.2789 60.6678C72.1271 60.6222 67.7603 59.1632 61.7589 55.5615C64.386 58.8783 70.6793 63.1867 74.4156 64.8508C71.2514 68.5438 64.7479 69.5012 59.1785 65.2611C60.1943 66.4465 61.4319 67.4838 62.8681 68.293Z" fill="#DB2754"/>
<path d="M47.1406 59.2886C54.3887 59.2886 60.2644 53.5527 60.2644 46.4772C60.2644 39.4018 54.3887 33.6659 47.1406 33.6659C39.8925 33.6659 34.0168 39.4018 34.0168 46.4772C34.0168 53.5527 39.8925 59.2886 47.1406 59.2886Z" fill="white"/>
<path d="M47.1406 57.6473C53.4601 57.6473 58.583 52.6463 58.583 46.4773C58.583 40.3082 53.4601 35.3073 47.1406 35.3073C40.8211 35.3073 35.6981 40.3082 35.6981 46.4773C35.6981 52.6463 40.8211 57.6473 47.1406 57.6473Z" fill="#4B716B"/>
<path d="M47.1406 55.4247C52.2026 55.4247 56.3062 51.4188 56.3062 46.4773C56.3062 41.5357 52.2026 37.5299 47.1406 37.5299C42.0786 37.5299 37.9749 41.5357 37.9749 46.4773C37.9749 51.4188 42.0786 55.4247 47.1406 55.4247Z" fill="#FEC11A"/>
</g>
</svg>
